# Blender v3.0.0 OBJ File: 'study table.blend'
# www.blender.org
mtllib study table.mtl
o Cube_Cube.001
v -0.920985 0.003021 0.849303
v -0.920985 0.767629 0.849303
v -0.925982 0.003021 0.881448
v -0.925982 0.767629 0.881448
v -0.892228 0.003021 0.886695
v -0.887231 0.003021 0.854550
v -0.892228 0.044297 0.886695
v -0.892228 0.043371 0.886695
v -0.887231 0.043371 0.854550
v -0.887231 0.044309 0.854550
v -0.920985 0.044321 0.849303
v -0.920985 0.043371 0.849303
v -0.925982 0.043371 0.881448
v -0.925982 0.044321 0.881448
v -0.527569 0.767629 0.943384
v -0.522572 0.767629 0.911239
v -0.527569 0.044297 0.943384
v -0.522572 0.044303 0.911239
v -0.893091 0.044297 0.885573
v -0.893091 0.043371 0.885573
v -0.888394 0.043371 0.855357
v -0.888394 0.044309 0.855357
v -0.924819 0.043371 0.880641
v -0.924819 0.044321 0.880641
v -0.920122 0.044321 0.850425
v -0.920122 0.043371 0.850425
v -0.768499 0.003021 -0.131581
v -0.768499 0.767629 -0.131581
v -0.773496 0.003021 -0.099437
v -0.773496 0.767629 -0.099437
v -0.739743 0.003021 -0.094190
v -0.734746 0.003021 -0.126334
v -0.739743 0.044297 -0.094190
v -0.739743 0.043371 -0.094190
v -0.734746 0.043371 -0.126334
v -0.734746 0.044309 -0.126334
v -0.768499 0.044321 -0.131581
v -0.768499 0.043371 -0.131581
v -0.773496 0.043371 -0.099437
v -0.773496 0.044321 -0.099437
v -0.375084 0.767629 -0.037501
v -0.370087 0.767629 -0.069645
v -0.375084 0.044297 -0.037501
v -0.370087 0.044303 -0.069645
v -0.740606 0.044297 -0.095311
v -0.740606 0.043371 -0.095311
v -0.735908 0.043371 -0.125527
v -0.735908 0.044309 -0.125527
v -0.772334 0.043371 -0.100244
v -0.772334 0.044321 -0.100244
v -0.767636 0.044321 -0.130459
v -0.767636 0.043371 -0.130459
v -0.686361 0.003021 -0.659948
v -0.686361 0.767629 -0.659948
v -0.691358 0.003021 -0.627804
v -0.691358 0.767629 -0.627804
v -0.657604 0.003021 -0.622557
v -0.652607 0.003021 -0.654701
v -0.657604 0.044297 -0.622557
v -0.657604 0.043371 -0.622557
v -0.652607 0.043371 -0.654701
v -0.652607 0.044309 -0.654701
v -0.686361 0.044321 -0.659948
v -0.686361 0.043371 -0.659948
v -0.691358 0.043371 -0.627804
v -0.691358 0.044321 -0.627804
v -0.292945 0.767629 -0.565868
v -0.287948 0.767629 -0.598012
v -0.292945 0.044297 -0.565868
v -0.287948 0.044303 -0.598012
v -0.658467 0.044297 -0.623678
v -0.658467 0.043371 -0.623678
v -0.653770 0.043371 -0.653894
v -0.653770 0.044309 -0.653894
v -0.690195 0.043371 -0.628611
v -0.690195 0.044321 -0.628611
v -0.685498 0.044321 -0.658827
v -0.685498 0.043371 -0.658827
v -0.124160 0.003021 0.973175
v -0.124160 0.767629 0.973175
v -0.129157 0.003021 1.005320
v -0.129157 0.767629 1.005320
v -0.162910 0.003021 1.000073
v -0.157913 0.003021 0.967928
v -0.162910 0.044297 1.000073
v -0.162910 0.043371 1.000073
v -0.157913 0.043371 0.967928
v -0.157913 0.044309 0.967928
v -0.124160 0.044321 0.973175
v -0.124160 0.043371 0.973175
v -0.129157 0.043371 1.005320
v -0.129157 0.044321 1.005320
v -0.161747 0.044297 0.999266
v -0.161747 0.043371 0.999266
v -0.157050 0.043371 0.969050
v -0.157050 0.044309 0.969050
v -0.130019 0.043371 1.004198
v -0.130019 0.044321 1.004198
v -0.125322 0.044321 0.973982
v -0.125322 0.043371 0.973982
v 0.028326 0.003021 -0.007709
v 0.028326 0.767629 -0.007709
v 0.023329 0.003021 0.024435
v 0.023329 0.767629 0.024435
v -0.010424 0.003021 0.019188
v -0.005427 0.003021 -0.012956
v -0.010424 0.044297 0.019188
v -0.010424 0.043371 0.019188
v -0.005427 0.043371 -0.012956
v -0.005427 0.044309 -0.012956
v 0.028326 0.044321 -0.007709
v 0.028326 0.043371 -0.007709
v 0.023329 0.043371 0.024435
v 0.023329 0.044321 0.024435
v -0.009262 0.044297 0.018381
v -0.009262 0.043371 0.018381
v -0.004565 0.043371 -0.011835
v -0.004565 0.044309 -0.011835
v 0.022466 0.043371 0.023314
v 0.022466 0.044321 0.023314
v 0.027163 0.044321 -0.006902
v 0.027163 0.043371 -0.006902
v 0.110464 0.003021 -0.536076
v 0.110464 0.767629 -0.536076
v 0.105467 0.003021 -0.503932
v 0.105467 0.767629 -0.503932
v 0.071714 0.003021 -0.509179
v 0.076711 0.003021 -0.541323
v 0.071714 0.044297 -0.509179
v 0.071714 0.043371 -0.509179
v 0.076711 0.043371 -0.541323
v 0.076711 0.044309 -0.541323
v 0.110464 0.044321 -0.536076
v 0.110464 0.043371 -0.536076
v 0.105467 0.043371 -0.503932
v 0.105467 0.044321 -0.503932
v 0.072876 0.044297 -0.509986
v 0.072876 0.043371 -0.509986
v 0.077574 0.043371 -0.540202
v 0.077574 0.044309 -0.540202
v 0.104604 0.043371 -0.505054
v 0.104604 0.044321 -0.505054
v 0.109302 0.044321 -0.535269
v 0.109302 0.043371 -0.535269
v -0.288815 0.073925 -0.024089
v -0.461352 0.103270 -0.050912
v -0.436453 0.073925 0.925615
v -0.608991 0.103270 0.898793
v -0.436453 0.104655 0.925615
v -0.288815 0.104655 -0.024089
v -0.461352 0.134000 -0.050912
v -0.608991 0.134000 0.898793
v -0.768499 0.071030 -0.131582
v -0.734746 0.071017 -0.126334
v -0.370087 0.071011 -0.069645
v -0.657604 0.071005 -0.622557
v -0.691358 0.071030 -0.627804
v -0.292945 0.071005 -0.565868
v 0.028326 0.071030 -0.007709
v -0.005427 0.071017 -0.012957
v 0.071714 0.071005 -0.509179
v 0.105467 0.071030 -0.503932
v -0.370087 0.740928 -0.069645
v -0.768499 0.740928 -0.131581
v -0.292945 0.740928 -0.565868
v -0.691358 0.740928 -0.627804
v 0.028326 0.740928 -0.007709
v 0.105467 0.740928 -0.503932
v 0.023381 0.652315 0.024444
v -0.642008 0.652315 -0.078996
v 0.023381 0.665593 0.024444
v -0.642008 0.665593 -0.078996
v 0.023138 0.665593 0.026007
v 0.023138 0.653701 0.026007
v -0.642251 0.653701 -0.077433
v -0.642251 0.665593 -0.077433
v 0.021133 0.652315 0.038906
v -0.644256 0.652315 -0.064534
v 0.021133 0.653701 0.038906
v -0.644256 0.653701 -0.064534
v -0.642251 0.665593 -0.077433
v -0.644256 0.665593 -0.064534
v -0.789496 0.652315 0.869744
v -0.124107 0.652315 0.973183
v -0.789496 0.665593 0.869744
v -0.124107 0.665593 0.973183
v -0.789253 0.665593 0.868181
v -0.789253 0.653701 0.868181
v -0.123864 0.653701 0.971620
v -0.123864 0.665593 0.971620
v -0.787248 0.652315 0.855282
v -0.121859 0.652315 0.958721
v -0.787248 0.653701 0.855282
v -0.121859 0.653701 0.958721
v -0.787248 0.665593 0.855282
v -0.789253 0.665593 0.868181
vt 0.375000 0.500000
vt 0.498403 0.500000
vt 0.498403 0.750000
vt 0.375000 0.750000
vt 0.364410 0.750000
vt 0.364410 0.500000
vt 0.750004 0.603301
vt 0.625009 0.603301
vt 0.625009 0.646699
vt 0.750004 0.646699
vt 0.197239 -0.040254
vt 0.816257 -0.040224
vt 0.816257 0.915250
vt 0.485107 0.915250
vt 0.197239 0.834243
vt 0.388488 0.760590
vt 0.375000 0.760590
vt 0.388488 0.489410
vt 0.375000 0.489410
vt 0.498480 0.500000
vt 0.625000 0.500000
vt 0.625000 0.750000
vt 0.498480 0.750000
vt 0.625009 0.603301
vt 0.625009 0.646699
vt 0.498480 0.750000
vt 0.498480 0.500000
vt 0.498403 0.500000
vt 0.498403 0.750000
vt 0.388496 0.489402
vt 0.388496 0.489402
vt 0.624854 0.646699
vt 0.624854 0.603301
vt 0.375000 0.603301
vt 0.375000 0.646699
vt 0.750000 0.500000
vt 0.750000 0.750000
vt 0.472317 0.138985
vt 0.998839 0.138985
vt 0.998839 0.659180
vt 0.014672 0.659196
vt 0.014731 0.183088
vt 0.624854 0.603301
vt 0.624854 0.646699
vt 0.388488 0.489410
vt 0.388525 0.760598
vt 0.388488 0.760590
vt 0.388525 0.760598
vt 0.375000 0.500000
vt 0.498403 0.500000
vt 0.498403 0.750000
vt 0.375000 0.750000
vt 0.364410 0.750000
vt 0.364410 0.500000
vt 0.750004 0.603301
vt 0.625009 0.603301
vt 0.625009 0.646699
vt 0.750004 0.646699
vt 0.008733 0.094995
vt 1.004762 0.095017
vt 1.004762 0.780001
vt 0.471927 0.780001
vt 0.008733 0.721926
vt 0.388488 0.760590
vt 0.375000 0.760590
vt 0.388488 0.489410
vt 0.375000 0.489410
vt 0.498480 0.500000
vt 0.625000 0.500000
vt 0.625000 0.750000
vt 0.498480 0.750000
vt 0.625009 0.603301
vt 0.625009 0.646699
vt 0.498480 0.750000
vt 0.498480 0.500000
vt 0.498403 0.500000
vt 0.498403 0.750000
vt 0.388496 0.489402
vt 0.388496 0.489402
vt 0.624854 0.646699
vt 0.624854 0.603301
vt 0.375000 0.603301
vt 0.375000 0.646699
vt 0.750000 0.500000
vt 0.750000 0.750000
vt 0.625000 0.875000
vt 0.388510 0.875004
vt 0.388525 0.760598
vt 0.624854 0.603301
vt 0.624854 0.646699
vt 0.388488 0.489410
vt 0.388525 0.760598
vt 0.388488 0.760590
vt 0.375000 0.500000
vt 0.498403 0.500000
vt 0.498403 0.750000
vt 0.375000 0.750000
vt 0.364410 0.750000
vt 0.364410 0.500000
vt 0.750004 0.603301
vt 0.625009 0.603301
vt 0.625009 0.646699
vt 0.750004 0.646699
vt 0.388496 0.374996
vt 0.625000 0.375000
vt 0.625000 0.500000
vt 0.498480 0.500000
vt 0.388496 0.489402
vt 0.388488 0.760590
vt 0.375000 0.760590
vt 0.388488 0.489410
vt 0.375000 0.489410
vt 0.625000 0.750000
vt 0.498480 0.750000
vt 0.625009 0.603301
vt 0.625009 0.646699
vt 0.498480 0.750000
vt 0.498480 0.500000
vt 0.498403 0.500000
vt 0.498403 0.750000
vt 0.388496 0.489402
vt 0.624854 0.646699
vt 0.624854 0.603301
vt 0.375000 0.603301
vt 0.375000 0.646699
vt 0.750000 0.500000
vt 0.750000 0.750000
vt 0.577693 1.625489
vt 0.106383 1.623679
vt 0.110418 0.971866
vt 0.991384 0.975230
vt 0.987638 1.571800
vt 0.624854 0.603301
vt 0.624854 0.646699
vt 0.388488 0.489410
vt 0.388525 0.760598
vt 0.388488 0.760590
vt 0.388525 0.760598
vt 0.375000 0.500000
vt 0.375000 0.750000
vt 0.498403 0.750000
vt 0.498403 0.500000
vt 0.364410 0.500000
vt 0.364410 0.750000
vt 0.625009 0.646699
vt 0.625009 0.603301
vt 0.197239 0.834243
vt 0.485107 0.915250
vt 0.816257 0.915250
vt 0.375000 0.760590
vt 0.388488 0.760590
vt 0.388488 0.489410
vt 0.375000 0.489410
vt 0.498480 0.500000
vt 0.498480 0.750000
vt 0.625000 0.750000
vt 0.625000 0.500000
vt 0.625009 0.646699
vt 0.625009 0.603301
vt 0.498480 0.500000
vt 0.498480 0.750000
vt 0.498403 0.750000
vt 0.498403 0.500000
vt 0.388496 0.489402
vt 0.388496 0.489402
vt 0.624854 0.646699
vt 0.375000 0.646699
vt 0.375000 0.603301
vt 0.624854 0.603301
vt 0.472317 0.783710
vt 0.014731 0.827813
vt 0.014672 1.303921
vt 0.998839 1.303905
vt 0.998839 0.783710
vt 0.624854 0.603301
vt 0.624854 0.646699
vt 0.388488 0.489410
vt 0.388488 0.760590
vt 0.388525 0.760598
vt 0.388525 0.760598
vt 0.375000 0.500000
vt 0.375000 0.750000
vt 0.498403 0.750000
vt 0.498403 0.500000
vt 0.364410 0.500000
vt 0.364410 0.750000
vt 0.625009 0.646699
vt 0.625009 0.603301
vt 0.008733 0.721926
vt 0.471927 0.780001
vt 1.004762 0.780001
vt 0.375000 0.760590
vt 0.388488 0.760590
vt 0.388488 0.489410
vt 0.375000 0.489410
vt 0.498480 0.500000
vt 0.498480 0.750000
vt 0.625000 0.750000
vt 0.625000 0.500000
vt 0.625009 0.646699
vt 0.625009 0.603301
vt 0.498480 0.500000
vt 0.498480 0.750000
vt 0.498403 0.750000
vt 0.498403 0.500000
vt 0.388496 0.489402
vt 0.388496 0.489402
vt 0.624854 0.646699
vt 0.375000 0.646699
vt 0.375000 0.603301
vt 0.624854 0.603301
vt 0.388525 0.760598
vt 0.624854 0.603301
vt 0.624854 0.646699
vt 0.388488 0.489410
vt 0.388488 0.760590
vt 0.388525 0.760598
vt 0.375000 0.500000
vt 0.375000 0.750000
vt 0.498403 0.750000
vt 0.498403 0.500000
vt 0.364410 0.500000
vt 0.364410 0.750000
vt 0.625009 0.646699
vt 0.625009 0.603301
vt 0.388496 0.489402
vt 0.498480 0.500000
vt 0.625000 0.500000
vt 0.375000 0.760590
vt 0.388488 0.760590
vt 0.388488 0.489410
vt 0.375000 0.489410
vt 0.498480 0.750000
vt 0.625000 0.750000
vt 0.625009 0.646699
vt 0.625009 0.603301
vt 0.498480 0.500000
vt 0.498480 0.750000
vt 0.498403 0.750000
vt 0.498403 0.500000
vt 0.388496 0.489402
vt 0.624854 0.646699
vt 0.375000 0.646699
vt 0.375000 0.603301
vt 0.624854 0.603301
vt 1.202732 0.591532
vt 1.612677 0.537843
vt 1.616423 -0.058728
vt 0.735457 -0.062091
vt 0.731422 0.589722
vt 0.624854 0.603301
vt 0.624854 0.646699
vt 0.388488 0.489410
vt 0.388488 0.760590
vt 0.388525 0.760598
vt 0.388525 0.760598
vt -0.342310 0.353058
vt 1.414471 0.353058
vt 1.414471 0.561873
vt -0.342310 0.561875
vt 1.414471 0.561873
vt 1.414471 0.770688
vt -0.342310 0.770689
vt -0.342310 0.561875
vt -0.328817 0.276732
vt -0.341892 0.276732
vt -0.342310 0.239155
vt -0.329234 0.239155
vt -0.342310 0.314896
vt 1.414471 0.314894
vt 1.414471 0.353058
vt -0.342310 0.353059
vt -0.342310 0.276732
vt 1.414471 0.276731
vt 1.414471 0.314894
vt -0.342310 0.314896
vt -0.315741 0.276731
vt -0.328817 0.276731
vt -0.328399 0.239154
vt -0.315324 0.239155
vt 0.388496 0.489402
vt 0.498480 0.500000
vt 0.000000 0.000000
vt 0.000000 0.000000
vt 0.000000 0.000000
vt 0.000000 0.000000
vt 0.000000 0.000000
vt 0.000000 0.000000
vt 0.000000 0.000000
vt 0.000000 0.000000
vt 0.000000 0.000000
vt 0.000000 0.000000
vt 0.388510 0.875004
vt 0.388525 0.760598
vt 0.388525 0.760598
vt 0.498480 0.750000
vt 0.388496 0.489402
vt 0.388496 0.374996
vt 0.000000 0.000000
vt 0.000000 0.000000
vt 0.498480 0.750000
vt 0.000000 0.000000
vt 0.000000 0.000000
vt 0.498480 0.500000
vt 0.000000 0.000000
vt 0.000000 0.000000
vt 0.000000 0.000000
vt 0.000000 0.000000
vt 0.000000 0.000000
vt 0.000000 0.000000
vt 0.000000 0.000000
vt 0.000000 0.000000
vt 0.625000 0.500000
vt 0.750000 0.500000
vt 0.625000 0.750000
vt 0.625000 0.875000
vt 0.000000 0.000000
vt 0.000000 0.000000
vt 0.625000 0.500000
vt 0.625000 0.750000
vt 0.000000 0.000000
vt 0.000000 0.000000
vt 0.000000 0.000000
vt 0.000000 1.000000
vt 1.000000 1.000000
vt 1.000000 0.000000
vt 0.000000 0.000000
vt 1.000000 0.000000
vt 1.000000 1.000000
vt 0.000000 1.000000
vt 1.000000 0.000000
vt 1.000000 0.000000
vt 0.000000 0.000000
vt 0.000000 0.000000
vt 1.000000 0.000000
vt 1.000000 0.000000
vt 0.000000 0.000000
vt 0.000000 1.000000
vt 1.000000 1.000000
vt 1.000000 0.000000
vt 0.000000 0.000000
vt 1.000000 0.000000
vt 1.000000 1.000000
vt 0.000000 1.000000
vt 1.000000 0.000000
vt 1.000000 0.000000
vt 0.000000 0.000000
vt 0.000000 0.000000
vt 0.000000 0.000000
vt 0.000000 0.000000
vn -0.9881 0.0000 -0.1536
vn 0.0000 -1.0000 0.0000
vn 0.0000 -1.0000 -0.0003
vn -0.1536 -0.0000 0.9881
vn 0.1536 0.0000 -0.9881
vn 0.0001 -1.0000 -0.0004
vn 0.0000 1.0000 0.0000
vn -0.0007 -1.0000 -0.0001
vn 0.9881 0.0000 0.1536
vn -0.0004 -1.0000 -0.0001
vn 0.0001 -1.0000 -0.0003
vn 0.0007 -1.0000 0.0001
vn 0.0004 -1.0000 0.0001
vn -0.1638 -0.9862 -0.0255
vn 0.1638 0.9862 0.0255
usemtl Material.005
s off
f 3/1/1 13/2/1 12/3/1 1/4/1
f 3/1/2 1/4/2 6/5/2 5/6/2
f 17/7/3 7/8/3 10/9/3 18/10/3
f 17/11/4 15/12/4 4/13/4 14/14/4 7/15/4
f 1/4/5 12/3/5 9/16/5 6/17/5
f 8/18/4 13/2/4 3/1/4 5/19/4
f 14/20/1 4/21/1 2/22/1 11/23/1
f 10/9/6 7/8/6 19/24/6 22/25/6
f 14/20/2 11/23/2 25/26/2 24/27/2
f 12/3/7 13/2/7 23/28/7 26/29/7
f 7/30/8 14/20/8 24/27/8 19/31/8
f 9/32/9 8/33/9 5/34/9 6/35/9
f 4/21/7 15/36/7 16/37/7 2/22/7
f 11/38/5 2/39/5 16/40/5 18/41/5 10/42/5
f 20/43/9 21/44/9 22/25/9 19/24/9
f 24/27/1 25/26/1 26/29/1 23/28/1
f 23/28/4 20/45/4 19/31/4 24/27/4
f 25/26/5 22/46/5 21/47/5 26/29/5
f 8/33/7 9/32/7 21/44/7 20/43/7
f 11/23/10 10/48/10 22/46/10 25/26/10
f 13/2/7 8/18/7 20/45/7 23/28/7
f 9/16/7 12/3/7 26/29/7 21/47/7
f 29/49/1 39/50/1 38/51/1 27/52/1
f 29/49/2 27/52/2 32/53/2 31/54/2
f 43/55/3 33/56/3 36/57/3 44/58/3
f 43/59/4 41/60/4 30/61/4 40/62/4 33/63/4
f 27/52/5 38/51/5 35/64/5 32/65/5
f 34/66/4 39/50/4 29/49/4 31/67/4
f 40/68/1 30/69/1 28/70/1 37/71/1
f 36/57/6 33/56/6 45/72/6 48/73/6
f 40/68/2 37/71/2 51/74/2 50/75/2
f 38/51/7 39/50/7 49/76/7 52/77/7
f 33/78/8 40/68/8 50/75/8 45/79/8
f 35/80/9 34/81/9 31/82/9 32/83/9
f 30/69/7 41/84/7 42/85/7 28/70/7
f 37/71/5 28/70/5 42/86/5 44/87/5 36/88/5
f 46/89/9 47/90/9 48/73/9 45/72/9
f 50/75/1 51/74/1 52/77/1 49/76/1
f 49/76/4 46/91/4 45/79/4 50/75/4
f 51/74/5 48/92/5 47/93/5 52/77/5
f 34/81/7 35/80/7 47/90/7 46/89/7
f 37/71/10 36/88/10 48/92/10 51/74/10
f 39/50/7 34/66/7 46/91/7 49/76/7
f 35/64/7 38/51/7 52/77/7 47/93/7
f 55/94/1 65/95/1 64/96/1 53/97/1
f 55/94/2 53/97/2 58/98/2 57/99/2
f 69/100/3 59/101/3 62/102/3 70/103/3
f 69/104/4 67/105/4 56/106/4 66/107/4 59/108/4
f 53/97/5 64/96/5 61/109/5 58/110/5
f 60/111/4 65/95/4 55/94/4 57/112/4
f 66/107/1 56/106/1 54/113/1 63/114/1
f 62/102/6 59/101/6 71/115/6 74/116/6
f 66/107/2 63/114/2 77/117/2 76/118/2
f 64/96/7 65/95/7 75/119/7 78/120/7
f 59/108/8 66/107/8 76/118/8 71/121/8
f 61/122/9 60/123/9 57/124/9 58/125/9
f 56/106/7 67/126/7 68/127/7 54/113/7
f 63/128/5 54/129/5 68/130/5 70/131/5 62/132/5
f 72/133/9 73/134/9 74/116/9 71/115/9
f 76/118/1 77/117/1 78/120/1 75/119/1
f 75/119/4 72/135/4 71/121/4 76/118/4
f 77/117/5 74/136/5 73/137/5 78/120/5
f 60/123/7 61/122/7 73/134/7 72/133/7
f 63/114/10 62/138/10 74/136/10 77/117/10
f 65/95/7 60/111/7 72/135/7 75/119/7
f 61/109/7 64/96/7 78/120/7 73/137/7
f 81/139/9 79/140/9 90/141/9 91/142/9
f 81/139/2 83/143/2 84/144/2 79/140/2
f 17/7/11 18/10/11 88/145/11 85/146/11
f 17/11/4 85/147/4 92/148/4 82/149/4 15/12/4
f 79/140/5 84/150/5 87/151/5 90/141/5
f 86/152/4 83/153/4 81/139/4 91/142/4
f 92/154/9 89/155/9 80/156/9 82/157/9
f 88/145/6 96/158/6 93/159/6 85/146/6
f 92/154/2 98/160/2 99/161/2 89/155/2
f 90/141/7 100/162/7 97/163/7 91/142/7
f 85/164/12 93/165/12 98/160/12 92/154/12
f 87/166/1 84/167/1 83/168/1 86/169/1
f 82/157/7 80/156/7 16/37/7 15/36/7
f 89/170/5 88/171/5 18/172/5 16/173/5 80/174/5
f 94/175/1 93/159/1 96/158/1 95/176/1
f 98/160/9 97/163/9 100/162/9 99/161/9
f 97/163/4 98/160/4 93/165/4 94/177/4
f 99/161/5 100/162/5 95/178/5 96/179/5
f 86/169/7 94/175/7 95/176/7 87/166/7
f 89/155/13 99/161/13 96/179/13 88/180/13
f 91/142/7 97/163/7 94/177/7 86/152/7
f 87/151/7 95/178/7 100/162/7 90/141/7
f 103/181/9 101/182/9 112/183/9 113/184/9
f 103/181/2 105/185/2 106/186/2 101/182/2
f 43/55/11 44/58/11 110/187/11 107/188/11
f 43/59/4 107/189/4 114/190/4 104/191/4 41/60/4
f 101/182/5 106/192/5 109/193/5 112/183/5
f 108/194/4 105/195/4 103/181/4 113/184/4
f 114/196/9 111/197/9 102/198/9 104/199/9
f 110/187/6 118/200/6 115/201/6 107/188/6
f 114/196/2 120/202/2 121/203/2 111/197/2
f 112/183/7 122/204/7 119/205/7 113/184/7
f 107/206/12 115/207/12 120/202/12 114/196/12
f 109/208/1 106/209/1 105/210/1 108/211/1
f 104/199/7 102/198/7 42/85/7 41/84/7
f 111/197/5 110/212/5 44/87/5 42/86/5 102/198/5
f 116/213/1 115/201/1 118/200/1 117/214/1
f 120/202/9 119/205/9 122/204/9 121/203/9
f 119/205/4 120/202/4 115/207/4 116/215/4
f 121/203/5 122/204/5 117/216/5 118/217/5
f 108/211/7 116/213/7 117/214/7 109/208/7
f 111/197/13 121/203/13 118/217/13 110/212/13
f 113/184/7 119/205/7 116/215/7 108/194/7
f 109/193/7 117/216/7 122/204/7 112/183/7
f 125/218/9 123/219/9 134/220/9 135/221/9
f 125/218/2 127/222/2 128/223/2 123/219/2
f 69/100/11 70/103/11 132/224/11 129/225/11
f 69/104/4 129/226/4 136/227/4 126/228/4 67/105/4
f 123/219/5 128/229/5 131/230/5 134/220/5
f 130/231/4 127/232/4 125/218/4 135/221/4
f 136/227/9 133/233/9 124/234/9 126/228/9
f 132/224/6 140/235/6 137/236/6 129/225/6
f 136/227/2 142/237/2 143/238/2 133/233/2
f 134/220/7 144/239/7 141/240/7 135/221/7
f 129/226/12 137/241/12 142/237/12 136/227/12
f 131/242/1 128/243/1 127/244/1 130/245/1
f 126/228/7 124/234/7 68/127/7 67/126/7
f 133/246/5 132/247/5 70/248/5 68/249/5 124/250/5
f 138/251/1 137/236/1 140/235/1 139/252/1
f 142/237/9 141/240/9 144/239/9 143/238/9
f 141/240/4 142/237/4 137/241/4 138/253/4
f 143/238/5 144/239/5 139/254/5 140/255/5
f 130/245/7 138/251/7 139/252/7 131/242/7
f 133/233/13 143/238/13 140/255/13 132/256/13
f 135/221/7 141/240/7 138/253/7 130/231/7
f 131/230/7 139/254/7 144/239/7 134/220/7
f 145/257/14 147/258/14 148/259/14 146/260/14
f 150/261/15 151/262/15 152/263/15 149/264/15
f 145/265/5 146/266/5 151/267/5 150/268/5
f 146/269/1 148/270/1 152/271/1 151/272/1
f 147/273/9 145/274/9 150/275/9 149/276/9
f 148/277/4 147/278/4 149/279/4 152/280/4
f 136/227/5 129/226/5 161/281/5 162/282/5
f 157/283/7 153/284/7 154/285/7 155/286/7 160/287/7 159/288/7 162/289/7 161/290/7 158/291/7 156/292/7
f 36/88/4 44/87/4 155/293/4 154/294/4
f 44/87/4 110/212/4 160/295/4 155/293/4
f 37/71/4 36/88/4 154/294/4 153/296/4
f 69/104/5 59/108/5 156/297/5 158/298/5
f 129/226/5 69/104/5 158/298/5 161/281/5
f 66/299/1 37/300/1 153/284/1 157/283/1
f 110/212/4 111/197/4 159/301/4 160/295/4
f 111/302/9 136/303/9 162/289/9 159/288/9
f 59/108/5 66/107/5 157/304/5 156/297/5
f 126/305/9 102/306/9 167/307/9 168/308/9
f 167/307/2 163/309/2 164/310/2 166/311/2 165/312/2 168/308/2
f 67/126/5 126/228/5 168/313/5 165/314/5
f 42/86/4 28/70/4 164/315/4 163/316/4
f 28/317/1 56/318/1 166/311/1 164/310/1
f 56/106/5 67/126/5 165/314/5 166/319/5
f 102/198/4 42/86/4 163/316/4 167/320/4
f 42/321/7 102/306/7 126/305/7 67/322/7 56/318/7 28/317/7
f 66/299/2 136/303/2 111/302/2 37/300/2
f 66/299/1 37/300/1 153/296/1 164/315/1 28/70/1 56/318/1 166/311/1 157/283/1
usemtl Material.002
f 169/323/4 171/324/4 172/325/4 170/326/4
f 174/327/5 175/328/5 176/329/5 173/330/5
f 170/326/9 172/325/9 176/329/9 175/328/9
f 171/324/1 169/323/1 174/327/1 173/330/1
f 172/325/2 171/324/2 173/330/2 176/329/2
f 170/326/9 175/328/9 180/331/9 178/332/9
f 177/333/5 178/332/5 180/331/5 179/334/5
f 175/328/2 174/327/2 179/334/2 180/331/2
f 169/323/7 170/326/7 178/332/7 177/333/7
f 174/327/1 169/323/1 177/333/1 179/334/1
f 175/328/1 180/331/1 182/335/1 181/336/1
f 183/337/5 185/338/5 186/339/5 184/340/5
f 188/341/4 189/342/4 190/343/4 187/344/4
f 184/340/1 186/339/1 190/343/1 189/342/1
f 185/338/9 183/337/9 188/341/9 187/344/9
f 186/339/2 185/338/2 187/344/2 190/343/2
f 184/340/1 189/342/1 194/345/1 192/346/1
f 191/347/4 192/346/4 194/345/4 193/348/4
f 189/342/2 188/341/2 193/348/2 194/345/2
f 183/337/7 184/340/7 192/346/7 191/347/7
f 188/341/9 183/337/9 191/347/9 193/348/9
f 188/341/9 193/348/9 195/349/9 196/350/9
o Cube.001_Cube.004
v -0.124074 0.774364 1.010187
v -0.131629 0.774364 1.012539
v -0.125525 0.774364 1.013343
v -0.128118 0.774364 1.013046
v -0.929483 0.774364 0.884981
v -0.925818 0.774364 0.889077
v -0.931877 0.774364 0.887990
v -0.925580 0.768830 0.886688
v -0.929317 0.774364 0.888494
v -0.131629 0.774364 1.012539
v -0.125525 0.774364 1.013343
v -0.131130 0.779899 1.010191
v -0.128118 0.774364 1.013046
v -0.925818 0.774364 0.889077
v -0.931877 0.774364 0.887990
v -0.929317 0.774364 0.888494
v -0.929573 0.779749 0.885553
v -0.124800 0.774364 1.011765
v -0.124800 0.774364 1.011765
v -0.929476 0.777780 0.884931
v -0.125525 0.774364 1.013343
v -0.124800 0.774364 1.011765
v -0.125162 0.774364 1.012554
v -0.932196 0.774364 0.885404
v -0.929037 0.771233 0.887432
v -0.124437 0.774364 1.010976
v -0.128062 0.777496 1.011949
v -0.064541 0.774364 0.627234
v -0.869951 0.774364 0.502028
v -0.931877 0.774364 0.887990
v -0.125525 0.774364 1.013343
v -0.124437 0.774364 1.010976
v -0.126091 0.771338 1.011922
v -0.131179 0.768547 1.010055
v -0.127624 0.768518 1.009630
v -0.929479 0.768499 0.884952
v -0.125162 0.774364 1.012554
v -0.127705 0.780229 1.009594
v -0.932196 0.774364 0.885404
v -0.930928 0.777304 0.886842
v -0.926811 0.774359 0.888909
v -0.869951 0.774364 0.502028
v -0.131092 0.767629 1.009097
v -0.578360 0.774364 0.943092
v -0.064541 0.774364 0.627234
v -0.925818 0.774364 0.889077
v -0.929317 0.774364 0.888494
v -0.931877 0.774364 0.887990
v -0.131629 0.774364 1.012539
v -0.128118 0.774364 1.013046
v -0.125525 0.774364 1.013343
v -0.125162 0.774364 1.012554
v -0.124800 0.774364 1.011765
v -0.929484 0.781099 0.884982
v -0.925416 0.780203 0.886586
v -0.929020 0.777574 0.887414
v -0.126294 0.777743 1.011754
v -0.131081 0.781098 1.009100
v -0.930663 0.770985 0.886709
v -0.929484 0.767630 0.884983
v -0.128072 0.771167 1.011932
v -0.125039 0.770930 1.009955
v -0.130601 0.774360 1.012692
v -0.127617 0.769773 1.010925
v -0.929479 0.770942 0.884949
v -0.929358 0.773201 0.888091
v -0.125057 0.777787 1.010002
v -0.127957 0.775528 1.012675
v -0.926161 0.778597 0.887205
v -0.930282 0.774369 0.888314
v -0.127144 0.774360 1.013168
v -0.007564 0.780214 0.237173
v -0.006278 0.778979 0.237373
v -0.009277 0.780255 0.236907
v -0.010963 0.780690 0.236645
v -0.011006 0.767629 0.236638
v -0.009271 0.768074 0.236908
v -0.006235 0.769757 0.237380
v -0.004948 0.770964 0.237580
v -0.809399 0.768065 0.112522
v -0.809399 0.768516 0.112522
v -0.809399 0.769749 0.112522
v -0.004303 0.775485 0.237680
v -0.003990 0.774364 0.237729
v -0.004953 0.777758 0.237579
v -0.809399 0.775485 0.112522
v -0.809399 0.774364 0.112522
v -0.809399 0.778988 0.112522
v -0.809399 0.777754 0.112522
v -0.809399 0.779972 0.112522
v -0.809399 0.780648 0.112522
v -0.809399 0.781099 0.112522
v -0.809399 0.770970 0.112522
v -0.809399 0.773243 0.112522
v -0.004303 0.773243 0.237680
v -0.007518 0.768525 0.237181
v -0.809399 0.767630 0.112522
v 0.116094 0.774364 -0.534729
v 0.109610 0.774364 -0.539264
v 0.115670 0.774364 -0.538176
v 0.113109 0.774364 -0.538681
v -0.689315 0.774364 -0.659936
v -0.684579 0.774364 -0.662726
v -0.690683 0.774364 -0.663530
v -0.685078 0.768830 -0.660377
v -0.688090 0.774364 -0.663233
v 0.109610 0.774364 -0.539264
v 0.115670 0.774364 -0.538176
v 0.109372 0.779899 -0.536875
v 0.113109 0.774364 -0.538681
v -0.684579 0.774364 -0.662726
v -0.690683 0.774364 -0.663530
v -0.688090 0.774364 -0.663233
v -0.689226 0.779749 -0.660509
v 0.115882 0.774364 -0.536453
v 0.115882 0.774364 -0.536453
v -0.689323 0.777780 -0.659886
v 0.115670 0.774364 -0.538176
v 0.115882 0.774364 -0.536453
v 0.115776 0.774364 -0.537315
v -0.691771 0.774364 -0.661163
v -0.688146 0.771233 -0.662135
v 0.115988 0.774364 -0.535591
v 0.112829 0.777496 -0.537618
v 0.056561 0.774364 -0.151776
v -0.748848 0.774364 -0.276983
v -0.690683 0.774364 -0.663530
v 0.115670 0.774364 -0.538176
v 0.115988 0.774364 -0.535591
v 0.114699 0.771338 -0.536994
v 0.109285 0.768547 -0.536760
v 0.112543 0.768518 -0.535276
v -0.689320 0.768499 -0.659908
v 0.115776 0.774364 -0.537315
v 0.112454 0.780229 -0.535266
v -0.691771 0.774364 -0.661163
v -0.690127 0.777304 -0.662148
v -0.685576 0.774359 -0.662867
v -0.748848 0.774364 -0.276983
v 0.109076 0.767629 -0.535821
v -0.337121 0.774364 -0.608711
v 0.056561 0.774364 -0.151776
v -0.684579 0.774364 -0.662726
v -0.688090 0.774364 -0.663233
v -0.690683 0.774364 -0.663530
v 0.109610 0.774364 -0.539264
v 0.113109 0.774364 -0.538681
v 0.115670 0.774364 -0.538176
v 0.115776 0.774364 -0.537315
v 0.115882 0.774364 -0.536453
v -0.689315 0.781099 -0.659937
v -0.684952 0.780203 -0.660231
v -0.688135 0.777574 -0.662114
v 0.114455 0.777743 -0.536896
v 0.109088 0.781098 -0.535820
v -0.689914 0.770985 -0.661941
v -0.689315 0.767630 -0.659938
v 0.112814 0.771167 -0.537605
v 0.115104 0.770930 -0.534801
v 0.110635 0.774360 -0.539098
v 0.112942 0.769773 -0.536507
v -0.689320 0.770942 -0.659904
v -0.688251 0.773201 -0.662861
v 0.115102 0.777787 -0.534851
v 0.113150 0.775528 -0.538278
v -0.685474 0.778597 -0.661047
v -0.689064 0.774369 -0.663354
v 0.114074 0.774360 -0.538501
vt 0.000072 0.500000
vt 0.000074 0.997761
vt 0.000038 0.500000
vt 0.000161 0.500000
vt 0.000162 0.997784
vt 0.000116 0.500000
vt 0.042491 0.020937
vt 0.042491 0.020937
vt 0.042491 0.020937
vt 0.042491 0.020937
vt 0.042491 0.020937
vt 0.042491 0.020937
vt 0.042491 0.020937
vt 0.042491 0.020937
vt 0.042491 0.020937
vt 0.042491 0.020937
vt 0.042491 0.020937
vt 0.042491 0.020937
vt 0.042491 0.020937
vt 0.042491 0.020937
vt 0.020912 0.997780
vt 0.020912 0.998150
vt 0.020802 0.998394
vt 0.020818 0.998856
vt 0.020889 0.999264
vt 0.020916 0.999954
vt 0.020939 0.999092
vt 0.041837 0.999069
vt 0.041786 0.999268
vt 0.041792 0.998589
vt 0.042491 0.020937
vt 0.042491 0.020937
vt 0.042491 0.020937
vt 0.042491 0.020937
vt 0.041860 0.999908
vt 0.041818 0.999954
vt 0.041729 0.999992
vt 0.041793 0.999973
vt 0.041697 0.998390
vt 0.042321 0.002178
vt 0.042367 0.001316
vt 0.042401 0.002132
vt 0.041950 0.002197
vt 0.041884 0.002193
vt 0.041951 0.000973
vt 0.021050 0.999992
vt 0.020984 0.999279
vt 0.021066 0.998474
vt 0.020959 0.999958
vt 0.020981 0.999725
vt 0.020985 0.999977
vt 0.042405 0.998222
vt 0.042490 0.997669
vt 0.042404 0.998753
vt 0.042407 0.997688
vt 0.042402 0.999287
vt 0.042484 0.998894
vt 0.042401 0.999817
vt 0.000003 0.997761
vt 0.000028 0.998985
vt 0.000131 0.999996
vt 0.000072 0.999279
vt 0.000158 0.998474
vt 0.000042 0.999954
vt 0.000065 0.999725
vt 0.000067 0.999973
vt 0.020799 1.000000
vt 0.020825 0.999989
vt 0.020890 0.999973
vt 0.042135 0.002209
vt 0.042122 0.000862
vt 0.042188 0.001808
vt 0.041785 0.997776
vt 0.041694 0.997780
vt 0.041694 0.500000
vt 0.041740 0.500000
vt 0.042360 0.499908
vt 0.042320 0.499908
vt 0.041884 0.499958
vt 0.041872 0.499958
vt 0.041917 0.499958
vt 0.020959 0.997784
vt 0.042434 0.499908
vt 0.042407 0.750912
vt 0.042407 0.499908
vt 0.000003 0.500000
vt 0.042073 0.499958
vt 0.042042 0.499958
vt 0.042042 0.248955
vt 0.042168 0.499958
vt 0.042134 0.499958
vt 0.042194 0.499958
vt 0.042225 0.002174
vt 0.042213 0.499958
vt 0.042225 0.499958
vt 0.011769 1.000000
vt 0.042491 0.020937
vt 0.042491 0.020937
vt 0.042491 0.020937
vt 0.042491 0.020937
vt 0.042491 0.020937
vt 0.042491 0.020937
vt 0.042491 0.020937
vt 0.042491 0.020937
vt 0.042042 0.248955
vt 0.042012 0.499958
vt 0.041950 0.499958
vt 0.042042 0.002174
vt 0.041860 0.002174
vt 0.042491 0.020937
vt 0.042491 0.020937
vt 0.042315 0.000839
vt 0.042225 0.002129
vt 0.042226 0.001595
vt 0.041702 1.000000
vt 0.030100 1.000000
vt 0.042491 0.020937
vt 0.042225 0.499908
vt 0.042225 0.248905
vt 0.042256 0.499908
vt 0.041786 0.500000
vt 0.020939 0.998985
vt 0.042491 0.020937
vt 0.042228 0.001064
vt 0.042229 0.000530
vt 0.042231 0.000000
vt 0.000000 0.999908
vt 0.042401 0.499908
vt 0.021076 1.000000
vt 0.041860 0.499958
vt 0.042490 0.499908
vt 0.000158 1.000000
vt 0.042491 0.020937
vt 0.042491 0.020937
vt -1.100019 1.141105
vt -1.100021 -0.141141
vt 0.010424 -0.141123
vt 0.010424 1.141145
vt 0.041855 0.997726
vt 0.486243 0.385806
vt 1.423018 0.383807
vt 1.429626 1.479382
vt 0.492851 1.481382
vt 0.042643 0.020937
vt 0.042581 0.020937
vt 0.042548 0.020937
vt 0.042521 0.020937
vt 0.042503 0.020937
vt 0.042491 0.020937
vt 0.042502 0.000181
vt 0.042514 0.000137
vt 0.042515 0.000093
vt 0.042548 0.000059
vt 0.042581 0.000025
vt 0.042643 0.000008
vt 0.042673 0.000000
vt 0.042704 0.000008
vt 0.042765 0.000025
vt 0.042798 0.000058
vt 0.042831 0.000092
vt 0.042844 0.000137
vt 0.042856 0.000182
vt 0.042856 0.020937
vt 0.042844 0.020937
vt 0.042832 0.020937
vt 0.042798 0.020937
vt 0.042765 0.020937
vt 0.042704 0.020937
vt 0.042673 0.020937
vt 0.042011 0.000229
vt 0.042043 0.000000
vt 0.000073 0.002239
vt 0.000162 0.002220
vt 0.042491 0.020937
vt 0.042491 0.020937
vt 0.042491 0.020937
vt 0.042491 0.020937
vt 0.042491 0.020937
vt 0.042491 0.020937
vt 0.042491 0.020937
vt 0.042491 0.020937
vt 0.042491 0.020937
vt 0.042491 0.020937
vt 0.042491 0.020937
vt 0.042491 0.020937
vt 0.042491 0.020937
vt 0.042491 0.020937
vt 0.020912 0.002216
vt 0.020802 0.001606
vt 0.020912 0.001850
vt 0.020818 0.001144
vt 0.020889 0.000732
vt 0.020916 0.000042
vt 0.020939 0.000908
vt 0.041837 0.000931
vt 0.041792 0.001408
vt 0.041786 0.000729
vt 0.042491 0.020937
vt 0.042491 0.020937
vt 0.042491 0.020937
vt 0.042491 0.020937
vt 0.041860 0.000092
vt 0.041818 0.000042
vt 0.041729 0.000004
vt 0.041793 0.000023
vt 0.041697 0.001606
vt 0.042321 0.997639
vt 0.042401 0.997688
vt 0.042367 0.998501
vt 0.041950 0.997719
vt 0.041951 0.998940
vt 0.041883 0.997719
vt 0.021050 0.000011
vt 0.021066 0.001530
vt 0.020984 0.000721
vt 0.020959 0.000046
vt 0.020985 0.000027
vt 0.020981 0.000275
vt 0.042405 0.001595
vt 0.042404 0.001064
vt 0.042490 0.002148
vt 0.042407 0.002129
vt 0.042402 0.000530
vt 0.042401 0.000000
vt 0.042484 0.000923
vt 0.000003 0.002239
vt 0.000028 0.001019
vt 0.000131 0.000004
vt 0.000158 0.001526
vt 0.000072 0.000721
vt 0.000042 0.000046
vt 0.000067 0.000027
vt 0.000065 0.000275
vt 0.020799 0.000000
vt 0.020825 0.000008
vt 0.020890 0.000023
vt 0.042135 0.997707
vt 0.042188 0.998108
vt 0.042122 0.999050
vt 0.041785 0.002220
vt 0.041694 0.002216
vt 0.020959 0.002220
vt 0.042407 0.248905
vt 0.042042 0.750957
vt 0.042225 0.997738
vt 0.011769 0.000000
vt 0.042491 0.020937
vt 0.042491 0.020937
vt 0.042491 0.020937
vt 0.042491 0.020937
vt 0.042491 0.020937
vt 0.042491 0.020937
vt 0.042491 0.020937
vt 0.042491 0.020937
vt 0.042042 0.750957
vt 0.042042 0.997738
vt 0.041860 0.997738
vt 0.042491 0.020937
vt 0.042491 0.020937
vt 0.042315 0.998978
vt 0.042226 0.998222
vt 0.042225 0.997688
vt 0.030100 0.000000
vt 0.041702 0.000000
vt 0.042491 0.020937
vt 0.042225 0.750912
vt 0.020939 0.001019
vt 0.042491 0.020937
vt 0.042228 0.998753
vt 0.042229 0.999287
vt 0.042231 0.999817
vt 0.000000 0.000092
vt 0.021076 0.000000
vt 0.000158 0.000000
vt 0.042491 0.020937
vt 0.042491 0.020937
vt 1.120867 1.141119
vt 1.120869 -0.141145
vt 0.041855 0.002270
vt -0.443924 1.483380
vt -0.450532 0.387804
vt 0.042042 0.999912
vt 0.042011 0.999683
vn 0.6799 0.7256 0.1057
vn 0.2440 0.9691 0.0374
vn 0.0000 0.0000 1.0000
vn -0.2619 0.3906 0.8825
vn -0.1645 0.6167 0.7698
vn -0.3145 0.3694 0.8744
vn 0.0536 -0.5733 0.8176
vn -0.0972 -0.4080 0.9078
vn -0.1327 -0.3279 0.9353
vn 0.0032 -0.5850 0.8110
vn 0.5044 -0.6213 0.5997
vn -0.8297 -0.0006 -0.5582
vn -0.0697 -0.3851 0.9202
vn -0.1756 -0.3168 0.9321
vn 0.8742 0.2726 0.4018
vn 0.8741 0.2727 0.4020
vn 0.8427 0.3739 0.3875
vn 0.5773 0.6972 0.4250
vn -0.2129 0.3852 0.8979
vn -0.1157 0.3168 0.9414
vn -0.1557 0.3889 0.9080
vn -0.1535 0.3279 0.9321
vn -0.8049 0.1426 -0.5761
vn 0.2427 -0.9694 0.0377
vn 0.6715 -0.7336 0.1044
vn -0.9881 0.0000 -0.1536
vn -0.1141 -0.6708 0.7328
vn -0.1410 -0.3974 0.9067
vn -0.1411 -0.3958 0.9074
vn 0.9510 0.2716 0.1478
vn 0.6656 0.7391 0.1035
vn -0.1414 0.3908 0.9096
vn -0.1399 0.4120 0.9004
vn -0.1048 0.7309 0.6744
vn -0.3088 0.5718 0.7601
vn 0.0666 0.6758 0.7341
vn -0.8386 -0.0144 -0.5446
vn 0.0771 -0.7160 0.6938
vn 0.0364 -0.3699 0.9283
vn 0.8346 -0.2863 0.4707
vn -0.0868 -0.8308 0.5497
vn -0.9881 0.0001 -0.1536
vn 0.9509 -0.2718 0.1478
vn 0.2436 -0.9691 0.0379
vn -0.2613 0.4504 0.8538
vn 0.0595 0.6702 0.7398
vn -0.2106 -0.5048 0.8371
vn -0.2169 -0.3854 0.8969
vn 0.8532 -0.3436 0.3924
vn 0.8533 -0.3435 0.3922
vn 0.8533 -0.3436 0.3922
vn -0.1181 -0.3283 0.9371
vn 0.0770 -0.7164 0.6934
vn -0.2491 -0.5949 0.7643
vn -0.1553 -0.3185 0.9351
vn -0.1461 -0.3357 0.9306
vn 0.7897 0.3508 0.5032
vn -0.3358 -0.3481 0.8753
vn -0.0613 0.3977 0.9154
vn 0.0053 0.5949 0.8038
vn -0.1345 0.3184 0.9384
vn -0.1421 0.3358 0.9312
vn 0.0543 0.3481 0.9359
vn 0.9498 -0.2759 0.1477
vn -0.1718 0.3285 0.9288
vn -0.0691 0.3812 0.9219
vn 0.6801 -0.7254 0.1058
vn -0.0581 -0.9265 0.3717
vn -0.1062 -0.7228 0.6829
vn 0.9490 0.2787 0.1475
vn -0.1412 0.3936 0.9084
vn -0.1138 0.6709 0.7327
vn -0.1410 0.3963 0.9072
vn 0.0233 0.9997 0.0036
vn -0.0000 -1.0000 -0.0000
vn 0.4987 -0.7564 0.4233
vn 0.0003 1.0000 -0.0002
vn 0.1536 0.0000 -0.9881
vn -0.9552 -0.0654 -0.2885
vn 0.2438 0.9691 0.0384
vn 0.0184 0.3905 -0.9204
vn 0.0770 0.6167 -0.7834
vn -0.0342 0.3694 -0.9286
vn 0.2991 -0.5733 -0.7628
vn 0.1830 -0.4080 -0.8945
vn 0.1575 -0.3279 -0.9315
vn 0.2493 -0.5850 -0.7717
vn 0.6627 -0.6212 -0.4183
vn -0.9600 -0.0006 0.2800
vn 0.2129 -0.3851 -0.8980
vn 0.1156 -0.3168 -0.9414
vn 0.9549 0.2726 -0.1176
vn 0.9205 0.3739 -0.1134
vn 0.6791 0.6972 -0.2297
vn 0.0698 0.3852 -0.9202
vn 0.1756 0.3168 -0.9321
vn 0.1272 0.3889 -0.9124
vn 0.1367 0.3279 -0.9348
vn -0.9418 0.1426 0.3046
vn 0.1138 -0.6707 -0.7330
vn 0.1410 -0.3974 -0.9067
vn 0.1411 -0.3958 -0.9074
vn 0.1414 0.3908 -0.9096
vn 0.1400 0.4120 -0.9004
vn 0.1048 0.7308 -0.6745
vn -0.0635 0.5718 -0.8179
vn 0.2863 0.6757 -0.6793
vn -0.9643 -0.0144 0.2644
vn 0.2840 -0.7160 -0.6377
vn 0.3165 -0.3699 -0.8735
vn 0.9381 -0.2863 -0.1950
vn 0.0860 -0.8232 -0.5612
vn 0.0102 0.4504 -0.8928
vn 0.2813 0.6702 -0.6868
vn 0.0536 -0.5048 -0.8616
vn 0.0656 -0.3854 -0.9204
vn 0.9321 -0.3436 -0.1147
vn 0.9321 -0.3436 -0.1148
vn 0.1719 -0.3283 -0.9288
vn 0.2839 -0.7164 -0.6373
vn -0.0052 -0.5948 -0.8039
vn 0.1359 -0.3186 -0.9381
vn 0.1434 -0.3357 -0.9310
vn 0.9052 0.3508 -0.2397
vn -0.0542 -0.3481 -0.9359
vn 0.2195 0.3978 -0.8908
vn 0.2491 0.5949 -0.7643
vn 0.1569 0.3184 -0.9349
vn 0.1474 0.3358 -0.9303
vn 0.3358 0.3481 -0.8753
vn 0.9498 -0.2759 0.1476
vn 0.1182 0.3284 -0.9371
vn 0.2141 0.3812 -0.8994
vn 0.6801 -0.7254 0.1057
vn 0.0583 -0.9260 -0.3729
vn 0.1062 -0.7227 -0.6830
vn 0.1412 0.3935 -0.9084
vn 0.1140 0.6709 -0.7327
vn 0.1411 0.3963 -0.9072
vn 0.6037 -0.7564 -0.2519
vn 0.0002 1.0000 0.0003
vn -0.9977 -0.0654 -0.0151
usemtl Material.005
s off
f 268/351/16 234/352/16 269/353/16
f 271/354/17 254/355/17 234/352/17 270/356/17
f 237/357/18 212/358/18 243/359/18
f 259/360/18 200/361/18 246/362/18
f 267/363/18 199/364/18 247/365/18
f 233/366/18 218/367/18 249/368/18
f 248/369/18 214/370/18 218/367/18
f 250/371/19 213/372/19 251/373/19
f 265/374/20 213/372/20 252/375/20
f 266/376/21 252/375/21 236/377/21
f 229/378/22 257/379/22 260/380/22
f 240/381/18 242/382/18 202/383/18
f 240/381/18 210/384/18 242/382/18
f 199/385/23 267/386/23 229/378/23
f 259/387/24 257/379/24 200/388/24
f 230/389/25 260/380/25 257/379/25
f 258/390/26 260/391/26 231/392/26
f 261/393/27 232/394/27 255/395/27
f 237/396/28 221/397/28 204/398/28
f 266/399/29 262/400/29 205/401/29
f 222/402/30 263/403/30 215/404/30
f 197/405/31 263/403/31 222/402/31
f 233/406/32 253/407/32 207/408/32
f 263/409/33 234/352/33 253/410/33
f 259/411/34 223/412/34 208/413/34
f 267/414/35 264/415/35 209/416/35
f 210/417/36 265/374/36 237/418/36
f 237/418/37 252/375/37 212/419/37
f 216/420/38 236/421/38 213/422/38
f 231/423/39 239/424/39 272/425/39 273/426/39
f 274/427/40 275/428/40 258/390/40 231/392/40
f 277/429/41 276/430/41 232/394/41
f 278/431/41 277/429/41 232/394/41
f 256/432/42 230/389/42 204/398/42
f 204/398/43 230/389/43 259/387/43
f 259/387/44 237/396/44 204/398/44
f 279/433/45 241/434/45 280/435/45
f 263/409/46 281/436/46 269/353/46 234/352/46
f 282/437/41 283/438/41 225/439/41
f 284/440/41 285/441/41 216/420/41
f 286/442/41 213/422/41 250/443/41 287/444/41
f 250/443/41 288/445/41 287/444/41
f 240/446/47 265/374/47 210/417/47
f 208/413/48 251/373/48 265/374/48
f 254/355/49 250/371/49 251/373/49
f 237/357/18 243/359/18 205/447/18
f 212/358/18 266/448/18 243/359/18
f 243/359/18 266/448/18 205/447/18
f 259/360/18 246/362/18 209/449/18
f 267/363/18 227/450/18 207/451/18
f 199/364/18 248/369/18 247/365/18
f 233/366/18 249/368/18 215/452/18
f 227/450/18 248/369/18 233/366/18
f 249/368/18 222/453/18 215/452/18
f 267/363/18 247/365/18 217/454/18
f 236/377/50 252/375/50 213/372/50
f 254/355/51 253/410/51 234/352/51
f 238/455/41 290/456/41 289/457/41 261/393/41 201/458/41
f 256/459/52 255/395/52 232/394/52
f 231/423/53 260/380/53 230/389/53
f 267/386/54 257/379/54 229/378/54
f 245/460/18 206/461/18 240/381/18
f 229/462/55 258/390/55 197/463/55 228/464/55
f 259/387/56 198/465/56 240/466/56
f 233/366/18 248/369/18 218/367/18
f 248/369/18 219/467/18 214/370/18
f 267/363/18 217/454/18 227/450/18
f 284/440/57 216/420/57 213/422/57 286/442/57
f 232/394/41 261/393/41 289/457/41 278/431/41
f 280/468/58 224/469/58 291/470/58
f 273/426/59 292/471/59 231/423/59
f 265/374/60 251/373/60 213/372/60
f 254/355/61 208/413/61 253/410/61
f 256/432/62 204/398/62 255/472/62
f 259/387/63 230/389/63 257/379/63
f 198/473/18 245/460/18 240/381/18
f 214/474/64 219/475/64 229/462/64
f 219/475/65 199/476/65 229/462/65
f 228/464/66 214/474/66 229/462/66
f 267/386/67 200/388/67 257/379/67
f 239/424/68 231/423/68 230/389/68
f 204/398/69 221/397/69 255/472/69
f 237/396/70 205/401/70 262/400/70
f 237/396/71 262/400/71 221/397/71
f 253/407/72 233/406/72 215/404/72 263/403/72
f 262/400/73 255/472/73 221/397/73
f 264/415/74 267/414/74 207/477/74 253/410/74
f 208/413/75 223/412/75 253/410/75
f 259/411/76 209/416/76 264/415/76
f 259/411/77 264/415/77 223/412/77
f 264/415/78 253/410/78 223/412/78
f 224/469/79 197/463/79 258/390/79 275/428/79 291/470/79
f 266/376/80 212/419/80 252/375/80
f 237/418/81 265/374/81 252/375/81
f 274/427/82 231/392/82 292/478/82
f 202/479/83 237/396/83 259/387/83 240/466/83
f 232/394/41 276/430/41 293/480/41 256/459/41
f 239/424/84 230/389/84 256/432/84
f 263/403/85 197/405/85 241/434/85 279/433/85 281/481/85
f 225/439/41 201/458/41 216/420/41 285/441/41 282/437/41
f 265/374/86 240/446/86 206/482/86 259/411/86
f 251/373/87 208/413/87 254/355/87
f 242/382/18 210/384/18 237/357/18
f 202/383/18 242/382/18 237/357/18
f 245/460/18 198/473/18 259/360/18
f 206/461/18 245/460/18 259/360/18
f 246/362/18 200/361/18 267/363/18
f 209/449/18 246/362/18 267/363/18
f 217/454/18 247/365/18 248/369/18
f 199/364/18 219/467/18 248/369/18
f 207/451/18 227/450/18 233/366/18
f 227/450/18 217/454/18 248/369/18
f 222/453/18 228/483/18 197/484/18
f 249/368/18 228/483/18 222/453/18
f 249/368/18 218/367/18 228/483/18
f 218/367/18 214/370/18 228/483/18
f 259/411/88 208/413/88 265/374/88
f 270/356/89 234/352/89 268/351/89
f 283/438/41 290/456/41 238/455/41
f 239/485/90 256/486/90 293/487/90 272/488/90
f 258/489/91 229/378/91 260/380/91
f 288/490/92 250/491/92 254/492/92 271/493/92
f 282/494/93 285/495/93 284/496/93 286/497/93 287/498/93 288/499/93 271/500/93 270/501/93 268/502/93 269/503/93 281/504/93 279/505/93 280/506/93 291/507/93 275/508/93 274/509/93 292/510/93 273/511/93 272/512/93 293/513/93 276/514/93 277/515/93 278/516/93 289/517/93 290/518/93 283/519/93
f 261/393/94 255/395/94 262/520/94 266/521/94 236/421/94 216/420/94 201/458/94
f 268/351/16 269/353/16 331/522/16
f 271/354/95 270/356/95 331/522/95 351/523/95
f 334/524/18 340/525/18 309/526/18
f 356/527/18 343/528/18 297/529/18
f 364/530/18 344/531/18 296/532/18
f 330/533/18 346/534/18 315/535/18
f 345/536/18 315/535/18 311/537/18
f 347/538/96 348/539/96 310/540/96
f 362/541/97 349/542/97 310/540/97
f 363/543/98 333/544/98 349/542/98
f 326/545/99 357/546/99 354/547/99
f 337/548/18 299/549/18 339/550/18
f 337/548/18 339/550/18 307/551/18
f 296/552/100 326/545/100 364/553/100
f 356/554/101 297/555/101 354/547/101
f 327/556/102 354/547/102 357/546/102
f 355/557/103 328/558/103 357/559/103
f 358/560/104 352/561/104 329/562/104
f 334/563/105 301/564/105 318/565/105
f 363/566/106 302/567/106 359/568/106
f 319/569/107 312/570/107 360/571/107
f 294/572/107 319/569/107 360/571/107
f 330/573/108 304/574/108 350/575/108
f 360/576/109 350/577/109 331/522/109
f 356/578/110 305/579/110 320/580/110
f 364/581/111 306/582/111 361/583/111
f 307/584/112 334/585/112 362/541/112
f 334/585/113 309/586/113 349/542/113
f 313/587/114 310/588/114 333/589/114
f 328/590/39 273/426/39 272/425/39 336/591/39
f 274/427/40 328/558/40 355/557/40 275/428/40
f 277/429/41 329/562/41 276/430/41
f 278/431/41 329/562/41 277/429/41
f 353/592/115 301/564/115 327/556/115
f 301/564/116 356/554/116 327/556/116
f 356/554/117 301/564/117 334/563/117
f 279/433/45 280/435/45 338/593/45
f 360/576/46 331/522/46 269/353/46 281/436/46
f 282/437/41 322/594/41 283/438/41
f 284/440/41 313/587/41 285/441/41
f 286/442/41 287/444/41 347/595/41 310/588/41
f 347/595/41 287/444/41 288/445/41
f 337/596/118 307/584/118 362/541/118
f 305/579/119 362/541/119 348/539/119
f 351/523/120 348/539/120 347/538/120
f 334/524/18 302/597/18 340/525/18
f 309/526/18 340/525/18 363/598/18
f 340/525/18 302/597/18 363/598/18
f 356/527/18 306/599/18 343/528/18
f 364/530/18 304/600/18 324/601/18
f 296/532/18 344/531/18 345/536/18
f 330/533/18 312/602/18 346/534/18
f 324/601/18 330/533/18 345/536/18
f 346/534/18 312/602/18 319/603/18
f 364/530/18 314/604/18 344/531/18
f 333/544/121 310/540/121 349/542/121
f 351/523/122 331/522/122 350/577/122
f 335/605/41 298/606/41 358/560/41 289/457/41 290/456/41
f 353/607/123 329/562/123 352/561/123
f 328/590/124 327/556/124 357/546/124
f 364/553/125 326/545/125 354/547/125
f 342/608/18 337/548/18 303/609/18
f 326/610/126 325/611/126 294/612/126 355/557/126
f 356/554/127 337/613/127 295/614/127
f 330/533/18 315/535/18 345/536/18
f 345/536/18 311/537/18 316/615/18
f 364/530/18 324/601/18 314/604/18
f 284/440/41 286/442/41 310/588/41 313/587/41
f 329/562/41 278/431/41 289/457/41 358/560/41
f 280/468/58 291/470/58 321/616/58
f 273/426/59 328/590/59 292/471/59
f 362/541/128 310/540/128 348/539/128
f 351/523/129 350/577/129 305/579/129
f 353/592/130 352/617/130 301/564/130
f 356/554/131 354/547/131 327/556/131
f 295/618/18 337/548/18 342/608/18
f 311/619/132 326/610/132 316/620/132
f 316/620/133 326/610/133 296/621/133
f 325/611/132 326/610/132 311/619/132
f 364/553/134 354/547/134 297/555/134
f 336/591/135 327/556/135 328/590/135
f 301/564/136 352/617/136 318/565/136
f 334/563/137 359/568/137 302/567/137
f 334/563/138 318/565/138 359/568/138
f 350/575/139 360/571/139 312/570/139 330/573/139
f 359/568/140 318/565/140 352/617/140
f 361/583/141 350/577/141 304/622/141 364/581/141
f 305/579/142 350/577/142 320/580/142
f 356/578/143 361/583/143 306/582/143
f 356/578/144 320/580/144 361/583/144
f 361/583/145 320/580/145 350/577/145
f 321/616/146 291/470/146 275/428/146 355/557/146 294/612/146
f 363/543/147 349/542/147 309/586/147
f 334/585/148 349/542/148 362/541/148
f 274/427/149 292/478/149 328/558/149
f 299/623/150 337/613/150 356/554/150 334/563/150
f 329/562/57 353/607/57 293/480/57 276/430/57
f 336/591/151 353/592/151 327/556/151
f 360/571/85 281/481/85 279/433/85 338/593/85 294/572/85
f 322/594/41 282/437/41 285/441/41 313/587/41 298/606/41
f 362/541/152 356/578/152 303/624/152 337/596/152
f 348/539/153 351/523/153 305/579/153
f 339/550/18 334/524/18 307/551/18
f 299/549/18 334/524/18 339/550/18
f 342/608/18 356/527/18 295/618/18
f 303/609/18 356/527/18 342/608/18
f 343/528/18 364/530/18 297/529/18
f 306/599/18 364/530/18 343/528/18
f 314/604/18 345/536/18 344/531/18
f 296/532/18 345/536/18 316/615/18
f 304/600/18 330/533/18 324/601/18
f 324/601/18 345/536/18 314/604/18
f 319/603/18 294/625/18 325/626/18
f 346/534/18 319/603/18 325/626/18
f 346/534/18 325/626/18 315/535/18
f 315/535/18 325/626/18 311/537/18
f 356/578/154 362/541/154 305/579/154
f 270/356/89 268/351/89 331/522/89
f 283/438/41 335/605/41 290/456/41
f 336/627/90 272/488/90 293/487/90 353/628/90
f 355/629/155 357/546/155 326/545/155
f 288/490/156 271/493/156 351/630/156 347/631/156
f 358/560/157 298/606/157 313/587/157 333/589/157 363/632/157 359/633/157 352/561/157
l 226 244
l 203 226
l 220 235
l 211 244
l 323 341
l 300 323
l 317 332
l 308 341
o Plane.001
v -0.373198 0.779749 -0.584786
v -0.689065 0.779749 -0.633890
v -0.689065 1.185018 -0.633890
v -0.370971 0.779749 -0.599112
v -0.686838 0.779749 -0.648216
v -0.686838 1.185018 -0.648216
v -0.373198 0.980590 -0.584786
v -0.549187 1.185018 -0.612144
v -0.546960 1.185018 -0.626471
v -0.370971 0.980590 -0.599112
v -0.375307 0.980590 -0.585114
v -0.684440 0.980590 -0.633170
v -0.607116 0.980590 0.906027
v -0.916248 0.980590 0.857970
v -0.607234 0.779749 0.920681
v -0.923101 0.779749 0.871577
v -0.923101 1.185018 0.871577
v -0.605007 0.779749 0.906354
v -0.920874 0.779749 0.857251
v -0.920874 1.185018 0.857251
v -0.607234 0.980590 0.920681
v -0.783222 1.185018 0.893322
v -0.780995 1.185018 0.878996
v -0.605007 0.980590 0.906354
v -0.607116 0.970406 0.906027
v -0.375307 0.970406 -0.585114
v -0.684440 0.970406 -0.633170
v -0.916248 0.970406 0.857970
v -0.676703 0.779749 -0.631968
v -0.676703 1.185018 -0.631968
v -0.908512 0.779749 0.859172
v -0.908512 1.185018 0.859172
v -0.456065 0.779749 -0.051731
v -0.771932 0.779749 -0.100835
v -0.771932 1.185018 -0.100835
v -0.453838 0.779749 -0.066057
v -0.769705 0.779749 -0.115161
v -0.769705 1.185018 -0.115161
v -0.456065 0.980590 -0.051731
v -0.632054 1.185018 -0.079090
v -0.629827 1.185018 -0.093416
v -0.453838 0.980590 -0.066057
v -0.759570 0.779749 -0.098913
v -0.759570 1.185018 -0.098913
vt 0.756216 1.203703
vt 0.756216 1.387897
vt 0.737351 1.387897
vt 0.737351 1.203703
vt 0.236865 1.203703
vt 0.652804 1.203703
vt 0.652804 1.759852
vt 0.468610 1.759852
vt 0.236865 1.479317
vt 0.671669 1.203703
vt 0.671669 1.619641
vt 0.652804 1.619641
vt 0.652804 1.203703
vt -0.735223 1.222568
vt -0.179073 1.222568
vt -0.179073 1.241432
vt -0.735223 1.241432
vt 1.191217 0.908597
vt 1.191217 0.632983
vt 1.422961 0.352447
vt 1.607156 0.352447
vt 1.607156 0.908597
vt 1.686531 -0.479317
vt 1.667666 -0.479317
vt 1.667666 -0.759852
vt 1.686531 -0.759852
vt 1.686531 -0.203702
vt 1.667666 -0.203702
vt 0.166884 0.303616
vt 1.506268 0.313508
vt 1.504217 0.591179
vt 0.164833 0.581288
vt 0.793948 1.203703
vt 0.793948 1.387897
vt 0.775082 1.387897
vt 0.775082 1.203703
vt 1.191217 0.908597
vt 1.607156 0.908597
vt 1.607156 1.464747
vt 1.422961 1.464747
vt 1.191217 1.184212
vt 0.709399 1.203703
vt 0.709399 1.619641
vt 0.690533 1.619641
vt 0.690533 1.203703
vt -0.735223 -0.759852
vt -0.179073 -0.759852
vt -0.179073 -0.740987
vt -0.735223 -0.740987
vt 1.191217 -0.203702
vt 1.191217 -0.479317
vt 1.422961 -0.759852
vt 1.607156 -0.759852
vt 1.607156 -0.203702
vt 1.686532 1.189133
vt 1.667666 1.189133
vt 1.667666 0.908597
vt 1.686532 0.908597
vt 1.686532 1.464747
vt 1.667666 1.464747
vt 0.166884 0.303616
vt 0.168935 0.025945
vt 1.508318 0.035837
vt 1.506268 0.313508
vt 0.167120 0.271696
vt -0.110552 0.269645
vt -0.110481 0.260112
vt 0.167190 0.262162
vt 0.162574 0.887217
vt 1.501958 0.897108
vt 1.501887 0.906642
vt 0.162503 0.896750
vt 1.501817 0.916176
vt 0.162433 0.906284
vt 0.162503 0.896750
vt 1.501887 0.906642
vt 0.167190 0.262162
vt -0.110481 0.260111
vt -0.110411 0.250578
vt 0.167260 0.252629
vt 1.686531 -0.203702
vt 1.686531 -0.759852
vt 1.702810 -0.759852
vt 1.702810 -0.203702
vt 0.377077 1.203703
vt -0.179073 1.203703
vt -0.179073 -0.759852
vt 0.377077 -0.759852
vt 1.607156 1.203703
vt 1.607156 -0.759852
vt 1.623435 -0.759852
vt 1.623435 1.203703
vt 1.702810 0.908597
vt 1.702810 1.464747
vt 1.686531 1.464747
vt 1.686531 0.908597
vt 1.639713 -0.759852
vt 1.639713 1.203703
vt 1.623435 1.203703
vt 1.623435 -0.759852
vt 0.852767 0.914672
vt 0.852767 1.020807
vt 0.841897 1.020807
vt 0.841897 0.914672
vt 0.302969 0.914672
vt 0.542639 0.914672
vt 0.542639 1.235134
vt 0.436503 1.235134
vt 0.302969 1.073485
vt 0.804049 0.914672
vt 0.804049 1.154342
vt 0.793179 1.154342
vt 0.793179 0.914672
vt 1.377958 0.103704
vt 1.377958 0.424166
vt 1.367088 0.424166
vt 1.367088 0.103704
vt 1.092551 0.424166
vt 1.092551 0.265353
vt 1.226085 0.103704
vt 1.332221 0.103704
vt 1.332220 0.424166
vt 1.377958 0.585815
vt 1.367088 0.585815
vt 1.367088 0.424166
vt 1.377958 0.424166
vt 1.377958 0.744628
vt 1.367088 0.744628
vt 1.377958 0.744628
vt 1.387338 0.424166
vt 1.387338 0.744628
vn 0.0000 1.0000 0.0000
vn 0.1536 -0.0000 -0.9881
vn 0.0000 -1.0000 0.0000
vn -0.9881 -0.0000 -0.1536
vn -0.1536 0.0000 0.9881
vn 0.7450 0.6569 0.1158
vn 0.9881 0.0000 0.1536
usemtl Material.005
s off
f 367/634/158 372/635/158 373/636/158 370/637/158
f 368/638/159 369/639/159 370/640/159 373/641/159 374/642/159
f 365/643/160 366/644/160 369/645/160 368/646/160
f 366/647/161 367/648/161 370/649/161 369/650/161
f 365/651/162 371/652/162 372/653/162 367/654/162 366/655/162
f 371/656/163 374/657/163 373/658/163 372/659/163
f 371/656/164 365/660/164 368/661/164 374/657/164
f 375/662/160 377/663/160 378/664/160 376/665/160
f 381/666/158 386/667/158 387/668/158 384/669/158
f 382/670/159 383/671/159 384/672/159 387/673/159 388/674/159
f 379/675/160 380/676/160 383/677/160 382/678/160
f 380/679/161 381/680/161 384/681/161 383/682/161
f 379/683/162 385/684/162 386/685/162 381/686/162 380/687/162
f 385/688/163 388/689/163 387/690/163 386/691/163
f 385/688/164 379/692/164 382/693/164 388/689/164
f 390/694/158 391/695/158 392/696/158 389/697/158
f 375/698/162 376/699/162 391/700/162 390/701/162
f 376/702/164 378/703/164 392/704/164 391/705/164
f 377/706/161 375/707/161 390/708/161 389/709/161
f 378/710/159 377/711/159 389/712/159 392/713/159
f 366/714/159 367/715/159 394/716/159 393/717/159
f 393/718/164 394/719/164 396/720/164 395/721/164
f 367/722/158 384/723/158 396/724/158 394/725/158
f 384/726/162 383/727/162 395/728/162 396/729/162
f 383/730/160 366/731/160 393/732/160 395/733/160
f 366/647/161 383/682/161 384/681/161 367/648/161
f 399/734/158 404/735/158 405/736/158 402/737/158
f 400/738/159 401/739/159 402/740/159 405/741/159 406/742/159
f 397/743/160 398/744/160 401/745/160 400/746/160
f 398/747/161 399/748/161 402/749/161 401/750/161
f 397/751/162 403/752/162 404/753/162 399/754/162 398/755/162
f 403/756/163 406/757/163 405/758/163 404/759/163
f 403/756/164 397/760/164 400/761/164 406/757/164
f 398/762/159 399/748/159 408/763/159 407/764/159
o Cube.002
v 0.023075 0.653775 0.026066
v -0.512806 0.653821 -0.057240
v -0.124056 0.653775 0.972509
v -0.659938 0.653821 0.889202
v -0.124056 0.663155 0.972509
v 0.023075 0.663155 0.026066
v -0.512806 0.663202 -0.057240
v -0.659938 0.663202 0.889202
vt -0.542415 1.076551
vt 1.542415 1.076551
vt 1.542415 -0.076551
vt -0.542415 -0.076551
vt -0.542415 1.076551
vt -0.542415 -0.076551
vt 1.542415 -0.076551
vt 1.542415 1.076551
vt 0.508725 0.539464
vt -0.491123 0.539464
vt -0.491275 0.460536
vt 0.508573 0.460536
vn -0.0001 -1.0000 -0.0000
vn 0.0001 1.0000 0.0000
vn 0.1536 0.0000 -0.9881
vn -0.9881 0.0000 -0.1536
vn 0.9881 0.0000 0.1536
vn -0.1536 0.0000 0.9881
usemtl Material.005
s off
f 409/765/165 411/766/165 412/767/165 410/768/165
f 414/769/166 415/770/166 416/771/166 413/772/166
f 409/765/167 410/768/167 415/770/167 414/769/167
f 410/768/168 412/767/168 416/771/168 415/770/168
f 411/773/169 409/774/169 414/775/169 413/776/169
f 412/767/170 411/766/170 413/772/170 416/771/170
o Cube.003
v 0.104029 0.447491 -0.504156
v 0.104030 0.072301 -0.504156
v 0.027830 0.447491 -0.007788
v 0.027830 0.072301 -0.007788
v 0.017652 0.447491 -0.009350
v 0.093852 0.447491 -0.505718
v 0.093852 0.072301 -0.505718
v 0.017652 0.072301 -0.009350
vt 0.000000 1.000000
vt 1.000000 1.000000
vt 1.000000 0.000000
vt 0.000000 0.000000
vt 0.000000 1.000000
vt 0.000000 0.000000
vt 1.000000 0.000000
vt 1.000000 1.000000
vt 1.000000 0.000000
vt 1.000000 1.000000
vt 0.000000 1.000000
vt 0.000000 0.000000
vn 0.9884 0.0000 0.1517
vn -0.9884 -0.0000 -0.1517
vn 0.0000 -1.0000 0.0000
vn 0.0000 1.0000 0.0000
vn -0.1517 0.0000 0.9884
vn 0.1517 0.0000 -0.9884
usemtl Material.005
s off
f 417/777/171 419/778/171 420/779/171 418/780/171
f 421/781/172 422/782/172 423/783/172 424/784/172
f 418/785/173 420/786/173 424/784/173 423/783/173
f 419/787/174 417/788/174 422/782/174 421/781/174
f 420/786/175 419/787/175 421/781/175 424/784/175
f 417/788/176 418/785/176 423/783/176 422/782/176
o Cube.004_Cube.005
v 0.105467 0.449032 -0.503932
v -0.665087 0.449032 -0.623720
v 0.028326 0.449032 -0.007709
v -0.742229 0.449032 -0.127498
v 0.017039 0.458795 -0.020639
v 0.090788 0.458795 -0.495039
v -0.653801 0.458795 -0.610791
v -0.727550 0.458795 -0.136391
v 0.028326 0.458795 -0.007709
v 0.105467 0.458795 -0.503932
v -0.665087 0.458795 -0.623720
v -0.742229 0.458795 -0.127498
v 0.028326 0.593625 -0.007709
v 0.105467 0.593625 -0.503932
v -0.665087 0.593625 -0.623720
v -0.742229 0.593625 -0.127498
v 0.017039 0.593625 -0.020639
v 0.090788 0.593625 -0.495039
v -0.653801 0.593625 -0.610791
v -0.727550 0.593625 -0.136391
vt 0.000000 0.000000
vt 0.000000 1.000000
vt 1.000000 1.000000
vt 1.000000 0.000000
vt 0.019688 0.001233
vt 0.980312 0.001233
vt 0.980312 0.998767
vt 0.019688 0.998767
vt 1.000000 1.000000
vt 1.000000 0.000000
vt -0.042836 1.000000
vt -0.042836 0.000152
vt 0.060286 0.000000
vt 0.060285 0.999848
vt 0.000000 1.000000
vt 0.000000 0.000000
vt 1.000000 1.000000
vt 1.000000 0.000000
vt 0.019688 0.998767
vt 0.019688 0.001233
vt 0.980312 0.001233
vt 0.980312 0.998767
vt 0.000000 0.000000
vt 0.000000 1.000000
vt -0.296438 0.045123
vt 1.292174 0.045123
vt 1.292174 1.004092
vt -0.296438 1.004092
vn 0.0000 -1.0000 0.0000
vn 0.0000 1.0000 0.0000
vn -0.9881 0.0000 -0.1536
vn 0.9881 0.0000 0.1536
vn -0.1536 0.0000 0.9881
vn 0.1536 0.0000 -0.9881
usemtl Material.005
s off
f 425/789/177 427/790/177 428/791/177 426/792/177
f 430/793/178 431/794/178 432/795/178 429/796/178
f 426/792/179 428/791/179 436/797/179 435/798/179
f 427/799/180 425/800/180 434/801/180 433/802/180
f 428/791/181 427/790/181 433/803/181 436/797/181
f 425/789/182 426/792/182 435/798/182 434/804/182
f 435/798/179 436/797/179 440/805/179 439/806/179
f 430/793/179 429/796/179 441/807/179 442/808/179
f 432/795/180 431/794/180 443/809/180 444/810/180
f 434/804/182 435/798/182 439/806/182 438/811/182
f 442/808/178 441/807/178 437/812/178 438/811/178
f 443/809/178 442/808/178 438/811/178 439/806/178
f 444/810/178 443/809/178 439/806/178 440/805/178
f 441/807/178 444/810/178 440/805/178 437/812/178
f 429/796/182 432/795/182 444/810/182 441/807/182
f 433/813/180 434/814/180 438/815/180 437/816/180
f 431/794/181 430/793/181 442/808/181 443/809/181
f 436/797/181 433/803/181 437/812/181 440/805/181
o Cube.005_Cube.006
v 0.105467 0.595211 -0.503932
v -0.665087 0.595211 -0.623720
v 0.028326 0.595211 -0.007709
v -0.742229 0.595211 -0.127498
v 0.017039 0.604974 -0.020639
v 0.090788 0.604974 -0.495039
v -0.653801 0.604974 -0.610791
v -0.727550 0.604974 -0.136391
v 0.028326 0.604974 -0.007709
v 0.105467 0.604974 -0.503932
v -0.665087 0.604974 -0.623720
v -0.742229 0.604974 -0.127498
v 0.028326 0.739804 -0.007709
v 0.105467 0.739804 -0.503932
v -0.665087 0.739804 -0.623720
v -0.742229 0.739804 -0.127498
v 0.017039 0.739804 -0.020639
v 0.090788 0.739804 -0.495039
v -0.653801 0.739804 -0.610791
v -0.727550 0.739804 -0.136391
vt 0.000000 1.000000
vt 1.000000 1.000000
vt 1.000000 0.000000
vt 0.000000 0.000000
vt 0.001233 0.980312
vt 0.001233 0.019689
vt 0.998767 0.019688
vt 0.998767 0.980312
vt 1.000000 0.000000
vt 0.000000 0.000000
vt -0.025287 1.000000
vt -0.025287 0.000152
vt 0.042737 0.000000
vt 0.042737 0.999848
vt 1.000000 1.000000
vt 0.000000 1.000000
vt 1.000000 0.000000
vt 0.000000 0.000000
vt 0.998767 0.980312
vt 0.001233 0.980312
vt 0.001233 0.019689
vt 0.998767 0.019688
vt 0.000000 1.000000
vt 1.000000 1.000000
vt 0.033254 0.128769
vt 0.958588 0.128771
vt 0.958668 0.871231
vt 0.033334 0.871230
vn 0.0000 -1.0000 0.0000
vn 0.0000 1.0000 -0.0000
vn -0.9881 0.0000 -0.1536
vn 0.9881 0.0000 0.1536
vn -0.1536 0.0000 0.9881
vn 0.1536 0.0000 -0.9881
usemtl Material.005
s off
f 445/817/183 447/818/183 448/819/183 446/820/183
f 450/821/184 451/822/184 452/823/184 449/824/184
f 446/820/185 448/819/185 456/825/185 455/826/185
f 447/827/186 445/828/186 454/829/186 453/830/186
f 448/819/187 447/818/187 453/831/187 456/825/187
f 445/817/188 446/820/188 455/826/188 454/832/188
f 455/826/185 456/825/185 460/833/185 459/834/185
f 450/821/185 449/824/185 461/835/185 462/836/185
f 452/823/186 451/822/186 463/837/186 464/838/186
f 454/832/188 455/826/188 459/834/188 458/839/188
f 462/836/184 461/835/184 457/840/184 458/839/184
f 463/837/184 462/836/184 458/839/184 459/834/184
f 464/838/184 463/837/184 459/834/184 460/833/184
f 461/835/184 464/838/184 460/833/184 457/840/184
f 449/824/188 452/823/188 464/838/188 461/835/188
f 453/841/186 454/842/186 458/843/186 457/844/186
f 451/822/187 450/821/187 462/836/187 463/837/187
f 456/825/187 453/831/187 457/840/187 460/833/187
o Handle
v 0.075790 0.669652 -0.199769
v 0.077207 0.670690 -0.198570
v 0.078154 0.672243 -0.197769
v 0.078486 0.674075 -0.197487
v 0.078154 0.675907 -0.197769
v 0.077207 0.677461 -0.198570
v 0.075790 0.678499 -0.199769
v 0.074119 0.678863 -0.201183
v 0.072448 0.678499 -0.202598
v 0.071031 0.677461 -0.203797
v 0.070084 0.675907 -0.204598
v 0.069752 0.674075 -0.204879
v 0.070084 0.672243 -0.204598
v 0.071031 0.670690 -0.203797
v 0.072448 0.669652 -0.202598
v 0.074119 0.669287 -0.201183
v 0.073300 0.669652 -0.196184
v 0.074275 0.670690 -0.194377
v 0.074926 0.672243 -0.193169
v 0.075155 0.674075 -0.192745
v 0.074926 0.675907 -0.193169
v 0.074275 0.677461 -0.194377
v 0.073300 0.678499 -0.196184
v 0.072151 0.678863 -0.198317
v 0.071001 0.678499 -0.200449
v 0.070027 0.677461 -0.202256
v 0.069376 0.675907 -0.203464
v 0.069147 0.674075 -0.203888
v 0.069376 0.672243 -0.203464
v 0.070027 0.670690 -0.202256
v 0.071001 0.669652 -0.200449
v 0.072151 0.669287 -0.198317
v 0.067143 0.670248 -0.192800
v 0.066850 0.671146 -0.190487
v 0.066654 0.672490 -0.188941
v 0.066585 0.674075 -0.188398
v 0.066654 0.675660 -0.188941
v 0.066850 0.677004 -0.190487
v 0.067143 0.677902 -0.192800
v 0.067489 0.678217 -0.195529
v 0.067835 0.677902 -0.198257
v 0.068128 0.677004 -0.200571
v 0.068323 0.675660 -0.202116
v 0.068392 0.674075 -0.202659
v 0.068323 0.672490 -0.202116
v 0.068128 0.671146 -0.200571
v 0.067835 0.670248 -0.198257
v 0.067489 0.669933 -0.195529
v 0.056744 0.670248 -0.194416
v 0.056386 0.671146 -0.192113
v 0.056147 0.672490 -0.190574
v 0.056063 0.674075 -0.190034
v 0.056147 0.675660 -0.190574
v 0.056386 0.677004 -0.192113
v 0.056744 0.677902 -0.194416
v 0.057167 0.678217 -0.197133
v 0.057589 0.677902 -0.199850
v 0.057947 0.677004 -0.202153
v 0.058186 0.675660 -0.203692
v 0.058270 0.674075 -0.204233
v 0.058186 0.672490 -0.203692
v 0.057947 0.671146 -0.202153
v 0.057589 0.670248 -0.199850
v 0.057167 0.669933 -0.197133
v 0.093213 0.669652 -0.311841
v 0.094927 0.670690 -0.312554
v 0.096072 0.672243 -0.313030
v 0.096474 0.674075 -0.313197
v 0.096072 0.675907 -0.313030
v 0.094927 0.677461 -0.312554
v 0.093213 0.678499 -0.311841
v 0.091191 0.678863 -0.311001
v 0.089169 0.678499 -0.310161
v 0.087455 0.677461 -0.309448
v 0.086310 0.675907 -0.308972
v 0.085908 0.674075 -0.308805
v 0.086310 0.672243 -0.308972
v 0.087455 0.670690 -0.309448
v 0.089169 0.669652 -0.310161
v 0.091191 0.669287 -0.311001
v 0.082655 0.669287 -0.256092
v 0.080626 0.669652 -0.256408
v 0.078905 0.670690 -0.256675
v 0.077756 0.672243 -0.256854
v 0.077352 0.674075 -0.256916
v 0.077756 0.675907 -0.256854
v 0.078905 0.677461 -0.256675
v 0.080626 0.678499 -0.256408
v 0.082655 0.678863 -0.256092
v 0.084684 0.678499 -0.255777
v 0.086404 0.677461 -0.255509
v 0.087554 0.675907 -0.255331
v 0.087957 0.674075 -0.255268
v 0.087554 0.672243 -0.255331
v 0.086404 0.670690 -0.255509
v 0.084684 0.669652 -0.255777
v 0.091929 0.669652 -0.316013
v 0.093406 0.670690 -0.317439
v 0.094393 0.672243 -0.318392
v 0.094739 0.674075 -0.318727
v 0.094393 0.675907 -0.318392
v 0.093406 0.677461 -0.317439
v 0.091929 0.678499 -0.316013
v 0.090186 0.678863 -0.314330
v 0.088443 0.678499 -0.312647
v 0.086966 0.677461 -0.311221
v 0.085979 0.675907 -0.310268
v 0.085633 0.674075 -0.309933
v 0.085979 0.672243 -0.310268
v 0.086966 0.670690 -0.311221
v 0.088443 0.669652 -0.312647
v 0.090186 0.669287 -0.314330
v 0.087089 0.670248 -0.321107
v 0.087512 0.671146 -0.323400
v 0.087795 0.672490 -0.324932
v 0.087894 0.674075 -0.325470
v 0.087795 0.675660 -0.324932
v 0.087512 0.677004 -0.323400
v 0.087089 0.677902 -0.321107
v 0.086590 0.678217 -0.318402
v 0.086091 0.677902 -0.315697
v 0.085668 0.677004 -0.313404
v 0.085386 0.675660 -0.311872
v 0.085287 0.674075 -0.311334
v 0.085386 0.672490 -0.311872
v 0.085668 0.671146 -0.313404
v 0.086091 0.670248 -0.315697
v 0.086590 0.669933 -0.318402
v 0.076690 0.670248 -0.322723
v 0.077048 0.671146 -0.325026
v 0.077288 0.672490 -0.326565
v 0.077372 0.674075 -0.327106
v 0.077288 0.675660 -0.326565
v 0.077048 0.677004 -0.325026
v 0.076690 0.677902 -0.322723
v 0.076268 0.678217 -0.320006
v 0.075846 0.677902 -0.317290
v 0.075488 0.677004 -0.314986
v 0.075248 0.675660 -0.313447
v 0.075164 0.674075 -0.312907
v 0.075248 0.672490 -0.313447
v 0.075488 0.671146 -0.314986
v 0.075846 0.670248 -0.317290
v 0.076268 0.669933 -0.320006
vn 0.6763 0.7291 0.1051
vn 0.3582 0.9320 0.0557
vn 0.3406 0.9316 0.1269
vn 0.6253 0.7398 0.2484
vn -0.0001 1.0000 0.0000
vn -0.3588 0.9317 -0.0558
vn -0.2961 0.9478 -0.1184
vn 0.0268 0.9996 0.0022
vn -0.6774 0.7280 -0.1053
vn -0.9046 0.4023 -0.1406
vn -0.8482 0.4335 -0.3042
vn -0.6056 0.7628 -0.2266
vn -0.9881 0.0000 -0.1536
vn -0.9046 -0.4024 -0.1406
vn -0.8482 -0.4335 -0.3042
vn -0.9431 0.0000 -0.3324
vn -0.0001 -1.0000 0.0000
vn 0.3582 -0.9320 0.0557
vn 0.3406 -0.9316 0.1269
vn 0.0268 -0.9996 0.0022
vn -0.6774 -0.7280 -0.1053
vn -0.3588 -0.9317 -0.0558
vn -0.2961 -0.9478 -0.1184
vn -0.6056 -0.7628 -0.2266
vn 0.9040 -0.4037 0.1405
vn 0.9881 0.0000 0.1536
vn 0.9222 0.0000 0.3868
vn 0.8396 -0.4180 0.3468
vn 0.9040 0.4037 0.1405
vn 0.8396 0.4180 0.3468
vn 0.6763 -0.7291 0.1051
vn 0.6253 -0.7398 0.2484
vn 0.6482 0.0000 0.7615
vn 0.5763 -0.4605 0.6752
vn -0.2839 -0.9398 -0.1900
vn -0.5352 -0.7545 -0.3798
vn 0.1847 -0.9511 0.2474
vn -0.0436 -0.9987 0.0238
vn -0.7522 -0.4245 -0.5039
vn -0.8402 0.0000 -0.5422
vn -0.7522 0.4245 -0.5039
vn -0.5352 0.7545 -0.3798
vn -0.2839 0.9398 -0.1900
vn -0.0436 0.9987 0.0238
vn 0.1847 0.9511 0.2474
vn 0.4006 0.7832 0.4754
vn 0.5763 0.4605 0.6752
vn 0.4006 -0.7832 0.4754
vn 0.1311 0.5186 0.8449
vn 0.1403 0.0000 0.9901
vn -0.0439 -0.9983 0.0376
vn -0.1273 -0.9706 -0.2042
vn 0.1311 -0.5186 0.8449
vn 0.0904 -0.8251 0.5577
vn -0.2347 -0.8522 -0.4676
vn -0.3721 -0.5538 -0.7449
vn 0.0277 -0.9586 0.2833
vn -0.4577 0.0000 -0.8891
vn -0.3721 0.5538 -0.7449
vn -0.2347 0.8522 -0.4676
vn -0.1273 0.9706 -0.2042
vn -0.0439 0.9983 0.0376
vn 0.0277 0.9586 0.2833
vn 0.0904 0.8251 0.5577
vn -0.0790 0.8578 0.5079
vn -0.1271 0.5610 0.8180
vn -0.1536 0.0000 0.9881
vn -0.1271 -0.5610 0.8180
vn 0.0367 -0.9711 -0.2358
vn 0.0790 -0.8578 -0.5079
vn -0.0367 -0.9711 0.2358
vn 0.0000 -1.0000 0.0000
vn 0.1271 -0.5610 -0.8180
vn 0.1536 0.0000 -0.9881
vn 0.1271 0.5610 -0.8180
vn 0.0790 0.8578 -0.5079
vn 0.0367 0.9711 -0.2358
vn 0.0000 1.0000 0.0000
vn -0.0367 0.9711 0.2358
vn -0.0790 -0.8578 0.5079
vn 0.6712 0.7398 -0.0468
vn 0.3630 0.9316 -0.0175
vn 0.0262 0.9996 0.0060
vn -0.3181 0.9478 0.0229
vn -0.6458 0.7628 0.0320
vn -0.9006 0.4335 0.0324
vn -0.9995 0.0000 0.0304
vn -0.9006 -0.4335 0.0324
vn 0.0262 -0.9996 0.0060
vn 0.3630 -0.9316 -0.0175
vn -0.6458 -0.7628 0.0320
vn -0.3181 -0.9478 0.0229
vn 0.9053 -0.4180 -0.0756
vn 0.9961 0.0000 -0.0885
vn 0.9053 0.4180 -0.0756
vn 0.6712 -0.7398 -0.0468
vn 0.7540 -0.4605 -0.4683
vn 0.8488 0.0000 -0.5287
vn -0.6253 -0.7545 0.1994
vn -0.3282 -0.9398 0.0948
vn -0.0343 -0.9987 -0.0359
vn 0.2511 -0.9511 -0.1796
vn -0.9652 0.0000 0.2615
vn -0.8697 -0.4245 0.2518
vn -0.6253 0.7545 0.1994
vn -0.8697 0.4245 0.2518
vn -0.0343 0.9987 -0.0359
vn -0.3282 0.9398 0.0948
vn 0.5261 0.7832 -0.3314
vn 0.2511 0.9511 -0.1796
vn 0.7541 0.4605 -0.4683
vn 0.5261 -0.7832 -0.3314
vn 0.4342 0.0000 -0.9008
vn 0.3814 0.5186 -0.7652
vn -0.1833 -0.9706 0.1559
vn -0.0305 -0.9983 -0.0491
vn 0.2554 -0.8251 -0.5039
vn 0.3814 -0.5186 -0.7652
vn -0.5806 -0.5538 0.5968
vn -0.3656 -0.8522 0.3743
vn 0.1124 -0.9586 -0.2615
vn -0.5806 0.5538 0.5968
vn -0.7060 0.0000 0.7081
vn -0.1833 0.9706 0.1559
vn -0.3656 0.8522 0.3743
vn 0.1124 0.9586 -0.2616
vn -0.0305 0.9983 -0.0491
vn 0.2554 0.8251 -0.5039
vn 0.1271 0.5609 -0.8180
usemtl Material.002
s 1
f 555//189 554//190 471//191 470//192
f 553//193 552//194 473//195 472//196
f 551//197 550//198 475//199 474//200
f 549//201 548//202 477//203 476//204
f 545//205 560//206 465//207 480//208
f 547//209 546//210 479//211 478//212
f 558//213 557//214 468//215 467//216
f 556//217 555//189 470//192 469//218
f 554//190 553//193 472//196 471//191
f 552//194 551//197 474//200 473//195
f 550//198 549//201 476//204 475//199
f 560//206 559//219 466//220 465//207
f 548//202 547//209 478//212 477//203
f 559//219 558//213 467//216 466//220
f 546//210 545//205 480//208 479//211
f 557//214 556//217 469//218 468//215
f 467//216 468//215 484//221 483//222
f 478//212 479//211 495//223 494//224
f 480//208 465//207 481//225 496//226
f 476//204 477//203 493//227 492//228
f 474//200 475//199 491//229 490//230
f 472//196 473//195 489//231 488//232
f 470//192 471//191 487//233 486//234
f 468//215 469//218 485//235 484//221
f 479//211 480//208 496//226 495//223
f 466//220 467//216 483//222 482//236
f 477//203 478//212 494//224 493//227
f 465//207 466//220 482//236 481//225
f 475//199 476//204 492//228 491//229
f 473//195 474//200 490//230 489//231
f 471//191 472//196 488//232 487//233
f 469//218 470//192 486//234 485//235
f 484//221 485//235 501//237 500//238
f 495//223 496//226 512//239 511//240
f 482//236 483//222 499//241 498//242
f 493//227 494//224 510//243 509//244
f 481//225 482//236 498//242 497//245
f 491//229 492//228 508//246 507//247
f 489//231 490//230 506//248 505//249
f 487//233 488//232 504//250 503//251
f 485//235 486//234 502//252 501//237
f 483//222 484//221 500//238 499//241
f 494//224 495//223 511//240 510//243
f 496//226 481//225 497//245 512//239
f 492//228 493//227 509//244 508//246
f 490//230 491//229 507//247 506//248
f 488//232 489//231 505//249 504//250
f 486//234 487//233 503//251 502//252
f 501//237 502//252 518//253 517//254
f 499//241 500//238 516//255 515//256
f 510//243 511//240 527//257 526//258
f 512//239 497//245 513//259 528//260
f 508//246 509//244 525//261 524//262
f 506//248 507//247 523//263 522//264
f 504//250 505//249 521//265 520//266
f 502//252 503//251 519//267 518//253
f 500//238 501//237 517//254 516//255
f 511//240 512//239 528//260 527//257
f 498//242 499//241 515//256 514//268
f 509//244 510//243 526//258 525//261
f 497//245 498//242 514//268 513//259
f 507//247 508//246 524//262 523//263
f 505//249 506//248 522//264 521//265
f 503//251 504//250 520//266 519//267
f 555//189 534//269 535//270 554//190
f 553//193 536//271 537//272 552//194
f 551//197 538//273 539//274 550//198
f 549//201 540//275 541//276 548//202
f 545//205 544//277 529//278 560//206
f 547//209 542//279 543//280 546//210
f 558//213 531//281 532//282 557//214
f 556//217 533//283 534//269 555//189
f 554//190 535//270 536//271 553//193
f 552//194 537//272 538//273 551//197
f 550//198 539//274 540//275 549//201
f 560//206 529//278 530//284 559//219
f 548//202 541//276 542//279 547//209
f 559//219 530//284 531//281 558//213
f 546//210 543//280 544//277 545//205
f 557//214 532//282 533//283 556//217
f 531//281 563//285 564//286 532//282
f 542//279 574//287 575//288 543//280
f 544//277 576//289 561//290 529//278
f 540//275 572//291 573//292 541//276
f 538//273 570//293 571//294 539//274
f 536//271 568//295 569//296 537//272
f 534//269 566//297 567//298 535//270
f 532//282 564//286 565//299 533//283
f 543//280 575//288 576//289 544//277
f 530//284 562//300 563//285 531//281
f 541//276 573//292 574//287 542//279
f 529//278 561//290 562//300 530//284
f 539//274 571//294 572//291 540//275
f 537//272 569//296 570//293 538//273
f 535//270 567//298 568//295 536//271
f 533//283 565//299 566//297 534//269
f 564//286 580//301 581//302 565//299
f 575//288 591//303 592//304 576//289
f 562//300 578//305 579//306 563//285
f 573//292 589//307 590//308 574//287
f 561//290 577//309 578//305 562//300
f 571//294 587//310 588//311 572//291
f 569//296 585//312 586//313 570//293
f 567//298 583//314 584//315 568//295
f 565//299 581//302 582//316 566//297
f 563//285 579//306 580//301 564//286
f 574//287 590//308 591//303 575//288
f 576//289 592//304 577//309 561//290
f 572//291 588//311 589//307 573//292
f 570//293 586//313 587//310 571//294
f 568//295 584//315 585//312 569//296
f 566//297 582//316 583//314 567//298
f 581//302 597//317 598//264 582//316
f 579//306 595//261 596//262 580//301
f 590//308 606//268 607//259 591//303
f 592//304 608//260 593//257 577//309
f 588//311 604//255 605//256 589//307
f 586//313 602//253 603//254 587//310
f 584//315 600//266 601//267 585//312
f 582//316 598//264 599//265 583//314
f 580//301 596//262 597//317 581//302
f 591//303 607//259 608//260 592//304
f 578//305 594//258 595//261 579//306
f 589//307 605//256 606//268 590//308
f 577//309 593//257 594//258 578//305
f 587//310 603//254 604//255 588//311
f 585//312 601//267 602//253 586//313
f 583//314 599//265 600//266 584//315
o Handle.001_Handle.002
v 0.075790 0.524374 -0.199769
v 0.077207 0.525412 -0.198570
v 0.078154 0.526965 -0.197769
v 0.078486 0.528798 -0.197487
v 0.078154 0.530630 -0.197769
v 0.077207 0.532183 -0.198570
v 0.075790 0.533221 -0.199769
v 0.074119 0.533585 -0.201183
v 0.072448 0.533221 -0.202598
v 0.071031 0.532183 -0.203797
v 0.070084 0.530630 -0.204598
v 0.069752 0.528798 -0.204879
v 0.070084 0.526965 -0.204598
v 0.071031 0.525412 -0.203797
v 0.072448 0.524374 -0.202598
v 0.074119 0.524010 -0.201183
v 0.073300 0.524374 -0.196184
v 0.074275 0.525412 -0.194377
v 0.074926 0.526965 -0.193169
v 0.075155 0.528798 -0.192745
v 0.074926 0.530630 -0.193169
v 0.074275 0.532183 -0.194377
v 0.073300 0.533221 -0.196184
v 0.072151 0.533585 -0.198317
v 0.071001 0.533221 -0.200449
v 0.070027 0.532183 -0.202256
v 0.069376 0.530630 -0.203464
v 0.069147 0.528798 -0.203888
v 0.069376 0.526965 -0.203464
v 0.070027 0.525412 -0.202256
v 0.071001 0.524374 -0.200449
v 0.072151 0.524010 -0.198317
v 0.067143 0.524971 -0.192800
v 0.066850 0.525869 -0.190487
v 0.066654 0.527213 -0.188941
v 0.066585 0.528798 -0.188398
v 0.066654 0.530383 -0.188941
v 0.066850 0.531727 -0.190487
v 0.067143 0.532625 -0.192800
v 0.067489 0.532940 -0.195529
v 0.067835 0.532625 -0.198257
v 0.068128 0.531727 -0.200571
v 0.068323 0.530383 -0.202116
v 0.068392 0.528798 -0.202659
v 0.068323 0.527213 -0.202116
v 0.068128 0.525869 -0.200571
v 0.067835 0.524971 -0.198257
v 0.067489 0.524655 -0.195529
v 0.056744 0.524971 -0.194416
v 0.056386 0.525869 -0.192113
v 0.056147 0.527213 -0.190574
v 0.056063 0.528798 -0.190034
v 0.056147 0.530383 -0.190574
v 0.056386 0.531727 -0.192113
v 0.056744 0.532625 -0.194416
v 0.057167 0.532940 -0.197133
v 0.057589 0.532625 -0.199850
v 0.057947 0.531727 -0.202153
v 0.058186 0.530383 -0.203692
v 0.058270 0.528798 -0.204233
v 0.058186 0.527213 -0.203692
v 0.057947 0.525869 -0.202153
v 0.057589 0.524971 -0.199850
v 0.057167 0.524655 -0.197133
v 0.093213 0.524374 -0.311841
v 0.094927 0.525412 -0.312554
v 0.096072 0.526965 -0.313030
v 0.096474 0.528798 -0.313197
v 0.096072 0.530630 -0.313030
v 0.094927 0.532183 -0.312554
v 0.093213 0.533221 -0.311841
v 0.091191 0.533585 -0.311001
v 0.089169 0.533221 -0.310161
v 0.087455 0.532183 -0.309448
v 0.086310 0.530630 -0.308972
v 0.085908 0.528798 -0.308805
v 0.086310 0.526965 -0.308972
v 0.087455 0.525412 -0.309448
v 0.089169 0.524374 -0.310161
v 0.091191 0.524010 -0.311001
v 0.082655 0.524010 -0.256092
v 0.080626 0.524374 -0.256408
v 0.078905 0.525412 -0.256675
v 0.077756 0.526965 -0.256854
v 0.077352 0.528798 -0.256916
v 0.077756 0.530630 -0.256854
v 0.078905 0.532183 -0.256675
v 0.080626 0.533221 -0.256408
v 0.082655 0.533585 -0.256092
v 0.084684 0.533221 -0.255777
v 0.086404 0.532183 -0.255509
v 0.087554 0.530630 -0.255331
v 0.087957 0.528798 -0.255268
v 0.087554 0.526965 -0.255331
v 0.086404 0.525412 -0.255509
v 0.084684 0.524374 -0.255777
v 0.091929 0.524374 -0.316013
v 0.093406 0.525412 -0.317439
v 0.094393 0.526965 -0.318392
v 0.094739 0.528798 -0.318727
v 0.094393 0.530630 -0.318392
v 0.093406 0.532183 -0.317439
v 0.091929 0.533221 -0.316013
v 0.090186 0.533585 -0.314330
v 0.088443 0.533221 -0.312647
v 0.086966 0.532183 -0.311221
v 0.085979 0.530630 -0.310268
v 0.085633 0.528798 -0.309933
v 0.085979 0.526965 -0.310268
v 0.086966 0.525412 -0.311221
v 0.088443 0.524374 -0.312647
v 0.090186 0.524010 -0.314330
v 0.087089 0.524971 -0.321107
v 0.087512 0.525869 -0.323400
v 0.087795 0.527213 -0.324932
v 0.087894 0.528798 -0.325470
v 0.087795 0.530383 -0.324932
v 0.087512 0.531727 -0.323400
v 0.087089 0.532625 -0.321107
v 0.086590 0.532940 -0.318402
v 0.086091 0.532625 -0.315697
v 0.085668 0.531727 -0.313404
v 0.085386 0.530383 -0.311872
v 0.085287 0.528798 -0.311334
v 0.085386 0.527213 -0.311872
v 0.085668 0.525869 -0.313404
v 0.086091 0.524971 -0.315697
v 0.086590 0.524655 -0.318402
v 0.076690 0.524971 -0.322723
v 0.077048 0.525869 -0.325026
v 0.077288 0.527213 -0.326565
v 0.077372 0.528798 -0.327106
v 0.077288 0.530383 -0.326565
v 0.077048 0.531727 -0.325026
v 0.076690 0.532625 -0.322723
v 0.076268 0.532940 -0.320006
v 0.075846 0.532625 -0.317290
v 0.075488 0.531727 -0.314986
v 0.075248 0.530383 -0.313447
v 0.075164 0.528798 -0.312907
v 0.075248 0.527213 -0.313447
v 0.075488 0.525869 -0.314986
v 0.075846 0.524971 -0.317290
v 0.076268 0.524655 -0.320006
vn 0.6763 0.7291 0.1051
vn 0.3582 0.9320 0.0557
vn 0.3406 0.9316 0.1269
vn 0.6253 0.7398 0.2484
vn -0.0001 1.0000 0.0000
vn -0.3588 0.9317 -0.0558
vn -0.2961 0.9478 -0.1184
vn 0.0268 0.9996 0.0022
vn -0.6774 0.7280 -0.1053
vn -0.9046 0.4023 -0.1406
vn -0.8482 0.4335 -0.3042
vn -0.6056 0.7628 -0.2266
vn -0.9881 0.0000 -0.1536
vn -0.9046 -0.4024 -0.1406
vn -0.8482 -0.4335 -0.3042
vn -0.9431 0.0000 -0.3324
vn -0.0001 -1.0000 0.0000
vn 0.3582 -0.9320 0.0557
vn 0.3406 -0.9316 0.1269
vn 0.0268 -0.9996 0.0022
vn -0.6774 -0.7280 -0.1053
vn -0.3588 -0.9317 -0.0558
vn -0.2961 -0.9478 -0.1184
vn -0.6056 -0.7628 -0.2266
vn 0.9040 -0.4037 0.1405
vn 0.9881 0.0000 0.1536
vn 0.9222 0.0000 0.3868
vn 0.8396 -0.4180 0.3468
vn 0.9040 0.4037 0.1405
vn 0.8396 0.4180 0.3468
vn 0.6763 -0.7291 0.1051
vn 0.6253 -0.7398 0.2484
vn 0.6482 0.0000 0.7615
vn 0.5763 -0.4605 0.6752
vn -0.2839 -0.9398 -0.1899
vn -0.5352 -0.7545 -0.3798
vn 0.1847 -0.9511 0.2474
vn -0.0436 -0.9987 0.0238
vn -0.7522 -0.4245 -0.5039
vn -0.8402 0.0000 -0.5422
vn -0.7522 0.4245 -0.5039
vn -0.5352 0.7545 -0.3798
vn -0.2839 0.9398 -0.1900
vn -0.0436 0.9987 0.0238
vn 0.1847 0.9511 0.2474
vn 0.4006 0.7832 0.4754
vn 0.5763 0.4605 0.6752
vn 0.4006 -0.7832 0.4754
vn 0.1311 0.5186 0.8449
vn 0.1403 0.0000 0.9901
vn -0.0439 -0.9983 0.0376
vn -0.1273 -0.9706 -0.2042
vn 0.1311 -0.5186 0.8449
vn 0.0904 -0.8251 0.5577
vn -0.2347 -0.8522 -0.4676
vn -0.3721 -0.5538 -0.7449
vn 0.0277 -0.9586 0.2834
vn -0.4577 0.0000 -0.8891
vn -0.3721 0.5538 -0.7449
vn -0.2347 0.8522 -0.4676
vn -0.1273 0.9706 -0.2042
vn -0.0439 0.9983 0.0376
vn 0.0277 0.9586 0.2834
vn 0.0904 0.8251 0.5577
vn -0.0790 0.8578 0.5079
vn -0.1271 0.5610 0.8180
vn -0.1536 0.0000 0.9881
vn -0.1271 -0.5610 0.8180
vn 0.0367 -0.9711 -0.2358
vn 0.0790 -0.8578 -0.5079
vn -0.0367 -0.9711 0.2358
vn 0.0000 -1.0000 0.0000
vn 0.1271 -0.5610 -0.8180
vn 0.1536 0.0000 -0.9881
vn 0.1271 0.5610 -0.8180
vn 0.0790 0.8578 -0.5079
vn 0.0367 0.9711 -0.2358
vn 0.0000 1.0000 0.0000
vn -0.0367 0.9711 0.2358
vn -0.0790 -0.8578 0.5079
vn 0.6712 0.7398 -0.0468
vn 0.3630 0.9316 -0.0175
vn 0.0262 0.9996 0.0060
vn -0.3181 0.9478 0.0229
vn -0.6458 0.7628 0.0320
vn -0.9006 0.4335 0.0324
vn -0.9995 0.0000 0.0304
vn -0.9006 -0.4335 0.0324
vn 0.0262 -0.9996 0.0060
vn 0.3630 -0.9316 -0.0175
vn -0.6458 -0.7628 0.0320
vn -0.3181 -0.9478 0.0229
vn 0.9053 -0.4180 -0.0756
vn 0.9961 0.0000 -0.0885
vn 0.9053 0.4180 -0.0756
vn 0.6712 -0.7398 -0.0468
vn 0.7540 -0.4605 -0.4683
vn 0.8488 0.0000 -0.5287
vn -0.6253 -0.7545 0.1994
vn -0.3282 -0.9398 0.0948
vn -0.0343 -0.9987 -0.0359
vn 0.2511 -0.9511 -0.1796
vn -0.9652 0.0000 0.2615
vn -0.8697 -0.4245 0.2518
vn -0.6253 0.7545 0.1994
vn -0.8697 0.4245 0.2518
vn -0.0343 0.9987 -0.0359
vn -0.3282 0.9398 0.0948
vn 0.5261 0.7832 -0.3314
vn 0.2511 0.9511 -0.1796
vn 0.7541 0.4605 -0.4683
vn 0.5261 -0.7832 -0.3314
vn 0.4342 0.0000 -0.9008
vn 0.3814 0.5186 -0.7652
vn -0.1833 -0.9706 0.1559
vn -0.0305 -0.9983 -0.0491
vn 0.2554 -0.8251 -0.5039
vn 0.3814 -0.5186 -0.7652
vn -0.5806 -0.5538 0.5968
vn -0.3656 -0.8522 0.3743
vn 0.1124 -0.9586 -0.2615
vn -0.5806 0.5538 0.5968
vn -0.7060 0.0000 0.7081
vn -0.1833 0.9706 0.1559
vn -0.3656 0.8522 0.3743
vn 0.1124 0.9586 -0.2615
vn -0.0305 0.9983 -0.0491
vn 0.2554 0.8251 -0.5039
vn 0.1271 0.5609 -0.8180
usemtl Material.002
s 1
f 699//318 698//319 615//320 614//321
f 697//322 696//323 617//324 616//325
f 695//326 694//327 619//328 618//329
f 693//330 692//331 621//332 620//333
f 689//334 704//335 609//336 624//337
f 691//338 690//339 623//340 622//341
f 702//342 701//343 612//344 611//345
f 700//346 699//318 614//321 613//347
f 698//319 697//322 616//325 615//320
f 696//323 695//326 618//329 617//324
f 694//327 693//330 620//333 619//328
f 704//335 703//348 610//349 609//336
f 692//331 691//338 622//341 621//332
f 703//348 702//342 611//345 610//349
f 690//339 689//334 624//337 623//340
f 701//343 700//346 613//347 612//344
f 611//345 612//344 628//350 627//351
f 622//341 623//340 639//352 638//353
f 624//337 609//336 625//354 640//355
f 620//333 621//332 637//356 636//357
f 618//329 619//328 635//358 634//359
f 616//325 617//324 633//360 632//361
f 614//321 615//320 631//362 630//363
f 612//344 613//347 629//364 628//350
f 623//340 624//337 640//355 639//352
f 610//349 611//345 627//351 626//365
f 621//332 622//341 638//353 637//356
f 609//336 610//349 626//365 625//354
f 619//328 620//333 636//357 635//358
f 617//324 618//329 634//359 633//360
f 615//320 616//325 632//361 631//362
f 613//347 614//321 630//363 629//364
f 628//350 629//364 645//366 644//367
f 639//352 640//355 656//368 655//369
f 626//365 627//351 643//370 642//371
f 637//356 638//353 654//372 653//373
f 625//354 626//365 642//371 641//374
f 635//358 636//357 652//375 651//376
f 633//360 634//359 650//377 649//378
f 631//362 632//361 648//379 647//380
f 629//364 630//363 646//381 645//366
f 627//351 628//350 644//367 643//370
f 638//353 639//352 655//369 654//372
f 640//355 625//354 641//374 656//368
f 636//357 637//356 653//373 652//375
f 634//359 635//358 651//376 650//377
f 632//361 633//360 649//378 648//379
f 630//363 631//362 647//380 646//381
f 645//366 646//381 662//382 661//383
f 643//370 644//367 660//384 659//385
f 654//372 655//369 671//386 670//387
f 656//368 641//374 657//388 672//389
f 652//375 653//373 669//390 668//391
f 650//377 651//376 667//392 666//393
f 648//379 649//378 665//394 664//395
f 646//381 647//380 663//396 662//382
f 644//367 645//366 661//383 660//384
f 655//369 656//368 672//389 671//386
f 642//371 643//370 659//385 658//397
f 653//373 654//372 670//387 669//390
f 641//374 642//371 658//397 657//388
f 651//376 652//375 668//391 667//392
f 649//378 650//377 666//393 665//394
f 647//380 648//379 664//395 663//396
f 699//318 678//398 679//399 698//319
f 697//322 680//400 681//401 696//323
f 695//326 682//402 683//403 694//327
f 693//330 684//404 685//405 692//331
f 689//334 688//406 673//407 704//335
f 691//338 686//408 687//409 690//339
f 702//342 675//410 676//411 701//343
f 700//346 677//412 678//398 699//318
f 698//319 679//399 680//400 697//322
f 696//323 681//401 682//402 695//326
f 694//327 683//403 684//404 693//330
f 704//335 673//407 674//413 703//348
f 692//331 685//405 686//408 691//338
f 703//348 674//413 675//410 702//342
f 690//339 687//409 688//406 689//334
f 701//343 676//411 677//412 700//346
f 675//410 707//414 708//415 676//411
f 686//408 718//416 719//417 687//409
f 688//406 720//418 705//419 673//407
f 684//404 716//420 717//421 685//405
f 682//402 714//422 715//423 683//403
f 680//400 712//424 713//425 681//401
f 678//398 710//426 711//427 679//399
f 676//411 708//415 709//428 677//412
f 687//409 719//417 720//418 688//406
f 674//413 706//429 707//414 675//410
f 685//405 717//421 718//416 686//408
f 673//407 705//419 706//429 674//413
f 683//403 715//423 716//420 684//404
f 681//401 713//425 714//422 682//402
f 679//399 711//427 712//424 680//400
f 677//412 709//428 710//426 678//398
f 708//415 724//430 725//431 709//428
f 719//417 735//432 736//433 720//418
f 706//429 722//434 723//435 707//414
f 717//421 733//436 734//437 718//416
f 705//419 721//438 722//434 706//429
f 715//423 731//439 732//440 716//420
f 713//425 729//441 730//442 714//422
f 711//427 727//443 728//444 712//424
f 709//428 725//431 726//445 710//426
f 707//414 723//435 724//430 708//415
f 718//416 734//437 735//432 719//417
f 720//418 736//433 721//438 705//419
f 716//420 732//440 733//436 717//421
f 714//422 730//442 731//439 715//423
f 712//424 728//444 729//441 713//425
f 710//426 726//445 727//443 711//427
f 725//431 741//446 742//393 726//445
f 723//435 739//390 740//391 724//430
f 734//437 750//397 751//388 735//432
f 736//433 752//389 737//386 721//438
f 732//440 748//384 749//385 733//436
f 730//442 746//382 747//383 731//439
f 728//444 744//395 745//396 729//441
f 726//445 742//393 743//394 727//443
f 724//430 740//391 741//446 725//431
f 735//432 751//388 752//389 736//433
f 722//434 738//387 739//390 723//435
f 733//436 749//385 750//397 734//437
f 721//438 737//386 738//387 722//434
f 731//439 747//383 748//384 732//440
f 729//441 745//396 746//382 730//442
f 727//443 743//394 744//395 728//444
o Handle.002_Handle.003
v 0.052109 0.325882 -0.051284
v 0.053841 0.326799 -0.052125
v 0.055136 0.327411 -0.053584
v 0.055796 0.327627 -0.055437
v 0.055722 0.327411 -0.057404
v 0.054924 0.326799 -0.059184
v 0.053525 0.325882 -0.060506
v 0.051736 0.324800 -0.061169
v 0.049831 0.323718 -0.061073
v 0.048099 0.322801 -0.060231
v 0.046804 0.322188 -0.058773
v 0.046143 0.321973 -0.056919
v 0.046217 0.322188 -0.054953
v 0.047015 0.322801 -0.053173
v 0.048415 0.323718 -0.051851
v 0.050204 0.324800 -0.051187
v 0.050222 0.329603 -0.051574
v 0.051614 0.331154 -0.052467
v 0.052682 0.332191 -0.053961
v 0.053263 0.332555 -0.055826
v 0.053268 0.332191 -0.057780
v 0.052697 0.331154 -0.059525
v 0.051637 0.329603 -0.060796
v 0.050249 0.327773 -0.061398
v 0.048744 0.325942 -0.061240
v 0.047352 0.324391 -0.060346
v 0.046284 0.323354 -0.058853
v 0.045703 0.322990 -0.056987
v 0.045698 0.323354 -0.055033
v 0.046268 0.324391 -0.053288
v 0.047329 0.325942 -0.052018
v 0.048717 0.327773 -0.051416
v 0.044817 0.333671 -0.053040
v 0.045026 0.335881 -0.053966
v 0.045284 0.337357 -0.055360
v 0.045553 0.337876 -0.057010
v 0.045791 0.337357 -0.058665
v 0.045963 0.335881 -0.060072
v 0.046042 0.333671 -0.061018
v 0.046016 0.331064 -0.061359
v 0.045889 0.328457 -0.061042
v 0.045680 0.326247 -0.060116
v 0.045422 0.324770 -0.058721
v 0.045153 0.324251 -0.057071
v 0.044914 0.324770 -0.055417
v 0.044743 0.326247 -0.054009
v 0.044664 0.328457 -0.053063
v 0.044690 0.331064 -0.052723
v 0.034415 0.333671 -0.054636
v 0.034559 0.335881 -0.055572
v 0.034774 0.337357 -0.056973
v 0.035028 0.337876 -0.058626
v 0.035281 0.337357 -0.060278
v 0.035496 0.335881 -0.061679
v 0.035640 0.333671 -0.062615
v 0.035690 0.331064 -0.062944
v 0.035640 0.328457 -0.062615
v 0.035496 0.326247 -0.061679
v 0.035281 0.324770 -0.060278
v 0.035028 0.324251 -0.058626
v 0.034774 0.324770 -0.056973
v 0.034559 0.326247 -0.055572
v 0.034415 0.328457 -0.054636
v 0.034365 0.331064 -0.054308
v 0.052109 0.218341 -0.051284
v 0.053841 0.217424 -0.052125
v 0.055136 0.216811 -0.053584
v 0.055796 0.216596 -0.055437
v 0.055722 0.216811 -0.057404
v 0.054925 0.217424 -0.059184
v 0.053525 0.218341 -0.060506
v 0.051736 0.219422 -0.061169
v 0.049831 0.220504 -0.061073
v 0.048099 0.221421 -0.060231
v 0.046804 0.222034 -0.058773
v 0.046143 0.222249 -0.056919
v 0.046217 0.222034 -0.054953
v 0.047015 0.221421 -0.053173
v 0.048415 0.220504 -0.051851
v 0.050204 0.219422 -0.051187
v 0.050204 0.272111 -0.051187
v 0.048232 0.272111 -0.051879
v 0.046678 0.272111 -0.053225
v 0.045776 0.272111 -0.055021
v 0.045666 0.272111 -0.056993
v 0.046363 0.272111 -0.058841
v 0.047761 0.272111 -0.060283
v 0.049648 0.272111 -0.061101
v 0.051736 0.272111 -0.061169
v 0.053707 0.272111 -0.060478
v 0.055262 0.272111 -0.059132
v 0.056163 0.272111 -0.057336
v 0.056274 0.272111 -0.055364
v 0.055577 0.272111 -0.053516
v 0.054179 0.272111 -0.052073
v 0.052292 0.272111 -0.051256
v 0.050222 0.214619 -0.051574
v 0.051614 0.213068 -0.052467
v 0.052682 0.212031 -0.053961
v 0.053263 0.211667 -0.055826
v 0.053268 0.212031 -0.057780
v 0.052697 0.213068 -0.059525
v 0.051637 0.214619 -0.060796
v 0.050249 0.216450 -0.061398
v 0.048744 0.218280 -0.061240
v 0.047352 0.219831 -0.060346
v 0.046284 0.220868 -0.058853
v 0.045703 0.221232 -0.056987
v 0.045698 0.220868 -0.055033
v 0.046269 0.219831 -0.053288
v 0.047329 0.218280 -0.052018
v 0.048717 0.216450 -0.051416
v 0.044817 0.210552 -0.053040
v 0.045026 0.208342 -0.053966
v 0.045284 0.206865 -0.055360
v 0.045553 0.206346 -0.057010
v 0.045792 0.206865 -0.058665
v 0.045963 0.208342 -0.060072
v 0.046042 0.210552 -0.061018
v 0.046016 0.213159 -0.061359
v 0.045889 0.215765 -0.061042
v 0.045680 0.217976 -0.060116
v 0.045422 0.219452 -0.058721
v 0.045153 0.219971 -0.057071
v 0.044914 0.219452 -0.055417
v 0.044743 0.217976 -0.054009
v 0.044664 0.215765 -0.053063
v 0.044690 0.213159 -0.052723
v 0.034415 0.210552 -0.054636
v 0.034559 0.208342 -0.055572
v 0.034774 0.206865 -0.056973
v 0.035028 0.206346 -0.058626
v 0.035281 0.206865 -0.060278
v 0.035496 0.208342 -0.061679
v 0.035640 0.210552 -0.062615
v 0.035690 0.213159 -0.062944
v 0.035640 0.215765 -0.062615
v 0.035496 0.217976 -0.061679
v 0.035281 0.219452 -0.060278
v 0.035028 0.219971 -0.058626
v 0.034774 0.219452 -0.056973
v 0.034559 0.217976 -0.055572
v 0.034415 0.215765 -0.054636
v 0.034365 0.213159 -0.054308
vn 0.8020 0.0000 -0.5973
vn 0.5143 0.0000 -0.8576
vn 0.5080 0.0815 -0.8574
vn 0.7746 0.1619 -0.6114
vn 0.1516 0.0000 -0.9884
vn -0.2341 0.0000 -0.9722
vn -0.1773 -0.0777 -0.9811
vn 0.1803 -0.0010 -0.9836
vn -0.5872 0.0000 -0.8094
vn -0.8532 0.0000 -0.5215
vn -0.8177 -0.1810 -0.5465
vn -0.5294 -0.1410 -0.8365
vn -0.9884 0.0000 -0.1517
vn -0.9704 0.0000 0.2416
vn -0.9439 -0.1810 0.2760
vn -0.9696 -0.1939 -0.1488
vn -0.1518 0.0000 0.9884
vn 0.2334 0.0000 0.9724
vn 0.2274 0.0815 0.9704
vn -0.1230 -0.0010 0.9924
vn -0.8030 0.0000 0.5960
vn -0.5150 0.0000 0.8572
vn -0.4634 -0.0777 0.8827
vn -0.7560 -0.1410 0.6392
vn 0.8524 0.0000 0.5228
vn 0.9884 0.0000 0.1517
vn 0.9570 0.2499 0.1469
vn 0.8173 0.2251 0.5304
vn 0.9700 0.0000 -0.2430
vn 0.9387 0.2251 -0.2609
vn 0.5859 0.0000 0.8103
vn 0.5555 0.1619 0.8156
vn 0.7349 0.6686 0.1128
vn 0.5948 0.6021 0.5326
vn -0.4609 -0.1575 0.8733
vn -0.7044 -0.3153 0.6359
vn 0.0831 0.2380 0.9677
vn -0.1929 0.0343 0.9806
vn -0.8722 -0.4037 0.2760
vn -0.8946 -0.4252 -0.1373
vn -0.7493 -0.4037 -0.5250
vn -0.4812 -0.3153 -0.8179
vn -0.1777 -0.1575 -0.9714
vn 0.1101 0.0344 -0.9933
vn 0.3695 0.2380 -0.8982
vn 0.5876 0.4385 -0.6800
vn 0.7272 0.6021 -0.3296
vn 0.3565 0.4385 0.8249
vn 0.3240 0.8360 -0.4428
vn 0.2779 0.9597 0.0426
vn -0.1917 0.0478 0.9803
vn -0.3110 -0.2021 0.9287
vn 0.1762 0.8360 0.5196
vn 0.0522 0.5736 0.8174
vn -0.4371 -0.4612 0.7721
vn -0.5549 -0.7056 0.4406
vn -0.0725 0.3019 0.9506
vn -0.5664 -0.8195 -0.0869
vn -0.3972 -0.7056 -0.5867
vn -0.1854 -0.4612 -0.8677
vn -0.0181 -0.2021 -0.9792
vn 0.1111 0.0478 -0.9926
vn 0.2159 0.3019 -0.9286
vn 0.2949 0.5736 -0.7641
vn 0.1265 0.5520 -0.8241
vn 0.0797 0.8508 -0.5195
vn 0.0000 1.0000 0.0000
vn -0.0797 0.8508 0.5194
vn -0.1464 -0.2627 0.9537
vn -0.1265 -0.5520 0.8241
vn -0.1464 0.2627 0.9537
vn -0.1517 0.0000 0.9884
vn -0.0797 -0.8508 0.5195
vn 0.0000 -1.0000 0.0000
vn 0.0797 -0.8508 -0.5194
vn 0.1265 -0.5520 -0.8241
vn 0.1464 -0.2627 -0.9537
vn 0.1517 0.0000 -0.9884
vn 0.1464 0.2627 -0.9537
vn -0.1265 0.5520 0.8241
vn 0.7746 -0.1619 -0.6114
vn 0.5080 -0.0815 -0.8574
vn 0.1803 0.0010 -0.9836
vn -0.1773 0.0777 -0.9811
vn -0.5294 0.1410 -0.8365
vn -0.8177 0.1810 -0.5465
vn -0.9696 0.1940 -0.1488
vn -0.9439 0.1810 0.2760
vn -0.1230 0.0010 0.9924
vn 0.2274 -0.0815 0.9704
vn -0.7560 0.1410 0.6392
vn -0.4634 0.0777 0.8827
vn 0.8173 -0.2251 0.5304
vn 0.9570 -0.2499 0.1469
vn 0.9387 -0.2251 -0.2609
vn 0.5555 -0.1619 0.8155
vn 0.5948 -0.6021 0.5326
vn 0.7349 -0.6686 0.1128
vn -0.7044 0.3153 0.6359
vn -0.4609 0.1575 0.8733
vn -0.1929 -0.0343 0.9806
vn 0.0831 -0.2380 0.9677
vn -0.8946 0.4252 -0.1373
vn -0.8722 0.4037 0.2760
vn -0.4812 0.3153 -0.8179
vn -0.7493 0.4037 -0.5250
vn 0.1101 -0.0344 -0.9933
vn -0.1777 0.1575 -0.9714
vn 0.5876 -0.4385 -0.6800
vn 0.3695 -0.2380 -0.8982
vn 0.7272 -0.6021 -0.3296
vn 0.3565 -0.4385 0.8249
vn 0.2779 -0.9597 0.0427
vn 0.3240 -0.8360 -0.4428
vn -0.3110 0.2021 0.9287
vn -0.1917 -0.0478 0.9803
vn 0.0522 -0.5736 0.8174
vn 0.1762 -0.8360 0.5196
vn -0.5549 0.7056 0.4406
vn -0.4371 0.4612 0.7721
vn -0.0725 -0.3019 0.9506
vn -0.3972 0.7056 -0.5867
vn -0.5664 0.8195 -0.0869
vn -0.0181 0.2021 -0.9792
vn -0.1854 0.4612 -0.8677
vn 0.2159 -0.3019 -0.9286
vn 0.1111 -0.0478 -0.9926
vn 0.2949 -0.5736 -0.7641
vn -0.0797 -0.8508 0.5194
vn 0.0797 0.8508 -0.5194
usemtl Material.002
s 1
f 843//447 842//448 759//449 758//450
f 841//451 840//452 761//453 760//454
f 839//455 838//456 763//457 762//458
f 837//459 836//460 765//461 764//462
f 833//463 848//464 753//465 768//466
f 835//467 834//468 767//469 766//470
f 846//471 845//472 756//473 755//474
f 844//475 843//447 758//450 757//476
f 842//448 841//451 760//454 759//449
f 840//452 839//455 762//458 761//453
f 838//456 837//459 764//462 763//457
f 848//464 847//477 754//478 753//465
f 836//460 835//467 766//470 765//461
f 847//477 846//471 755//474 754//478
f 834//468 833//463 768//466 767//469
f 845//472 844//475 757//476 756//473
f 755//474 756//473 772//479 771//480
f 766//470 767//469 783//481 782//482
f 768//466 753//465 769//483 784//484
f 764//462 765//461 781//485 780//486
f 762//458 763//457 779//487 778//488
f 760//454 761//453 777//489 776//490
f 758//450 759//449 775//491 774//492
f 756//473 757//476 773//493 772//479
f 767//469 768//466 784//484 783//481
f 754//478 755//474 771//480 770//494
f 765//461 766//470 782//482 781//485
f 753//465 754//478 770//494 769//483
f 763//457 764//462 780//486 779//487
f 761//453 762//458 778//488 777//489
f 759//449 760//454 776//490 775//491
f 757//476 758//450 774//492 773//493
f 772//479 773//493 789//495 788//496
f 783//481 784//484 800//497 799//498
f 770//494 771//480 787//499 786//500
f 781//485 782//482 798//501 797//502
f 769//483 770//494 786//500 785//503
f 779//487 780//486 796//504 795//505
f 777//489 778//488 794//506 793//507
f 775//491 776//490 792//508 791//509
f 773//493 774//492 790//510 789//495
f 771//480 772//479 788//496 787//499
f 782//482 783//481 799//498 798//501
f 784//484 769//483 785//503 800//497
f 780//486 781//485 797//502 796//504
f 778//488 779//487 795//505 794//506
f 776//490 777//489 793//507 792//508
f 774//492 775//491 791//509 790//510
f 789//495 790//510 806//511 805//512
f 787//499 788//496 804//513 803//514
f 798//501 799//498 815//515 814//516
f 800//497 785//503 801//517 816//518
f 796//504 797//502 813//519 812//520
f 794//506 795//505 811//521 810//522
f 792//508 793//507 809//523 808//524
f 790//510 791//509 807//525 806//511
f 788//496 789//495 805//512 804//513
f 799//498 800//497 816//518 815//515
f 786//500 787//499 803//514 802//526
f 797//502 798//501 814//516 813//519
f 785//503 786//500 802//526 801//517
f 795//505 796//504 812//520 811//521
f 793//507 794//506 810//522 809//523
f 791//509 792//508 808//524 807//525
f 843//447 822//527 823//528 842//448
f 841//451 824//529 825//530 840//452
f 839//455 826//531 827//532 838//456
f 837//459 828//533 829//534 836//460
f 833//463 832//535 817//536 848//464
f 835//467 830//537 831//538 834//468
f 846//471 819//539 820//540 845//472
f 844//475 821//541 822//527 843//447
f 842//448 823//528 824//529 841//451
f 840//452 825//530 826//531 839//455
f 838//456 827//532 828//533 837//459
f 848//464 817//536 818//542 847//477
f 836//460 829//534 830//537 835//467
f 847//477 818//542 819//539 846//471
f 834//468 831//538 832//535 833//463
f 845//472 820//540 821//541 844//475
f 819//539 851//543 852//544 820//540
f 830//537 862//545 863//546 831//538
f 832//535 864//547 849//548 817//536
f 828//533 860//549 861//550 829//534
f 826//531 858//551 859//552 827//532
f 824//529 856//553 857//554 825//530
f 822//527 854//555 855//556 823//528
f 820//540 852//544 853//557 821//541
f 831//538 863//546 864//547 832//535
f 818//542 850//558 851//543 819//539
f 829//534 861//550 862//545 830//537
f 817//536 849//548 850//558 818//542
f 827//532 859//552 860//549 828//533
f 825//530 857//554 858//551 826//531
f 823//528 855//556 856//553 824//529
f 821//541 853//557 854//555 822//527
f 852//544 868//559 869//560 853//557
f 863//546 879//561 880//562 864//547
f 850//558 866//563 867//564 851//543
f 861//550 877//565 878//566 862//545
f 849//548 865//567 866//563 850//558
f 859//552 875//568 876//569 860//549
f 857//554 873//570 874//571 858//551
f 855//556 871//572 872//573 856//553
f 853//557 869//560 870//574 854//555
f 851//543 867//564 868//559 852//544
f 862//545 878//566 879//561 863//546
f 864//547 880//562 865//567 849//548
f 860//549 876//569 877//565 861//550
f 858//551 874//571 875//568 859//552
f 856//553 872//573 873//570 857//554
f 854//555 870//574 871//572 855//556
f 869//560 885//521 886//522 870//574
f 867//564 883//575 884//520 868//559
f 878//566 894//526 895//517 879//561
f 880//562 896//518 881//515 865//567
f 876//569 892//513 893//514 877//565
f 874//571 890//511 891//576 875//568
f 872//573 888//524 889//525 873//570
f 870//574 886//522 887//523 871//572
f 868//559 884//520 885//521 869//560
f 879//561 895//517 896//518 880//562
f 866//563 882//516 883//575 867//564
f 877//565 893//514 894//526 878//566
f 865//567 881//515 882//516 866//563
f 875//568 891//576 892//513 876//569
f 873//570 889//525 890//511 874//571
f 871//572 887//523 888//524 872//573
o Plane_Plane.002
v 5.208104 0.000000 -4.704584
v -3.871073 0.000000 -5.854251
v 3.964755 0.000000 5.114422
v -5.114422 0.000000 3.964755
v 3.964755 2.397574 5.114422
v -3.871073 2.397574 -5.854251
v -5.114422 2.397574 3.964755
vt 0.000000 0.000000
vt 0.000000 1.000000
vt 1.000000 1.000000
vt 1.000000 0.000000
vt 1.000000 1.000000
vt 1.000000 0.000000
vt 0.000000 1.000000
vn 0.0000 -1.0000 0.0000
vn -0.9921 0.0000 -0.1256
vn -0.1256 0.0000 0.9921
usemtl None
s off
f 897/845/577 899/846/577 900/847/577 898/848/577
f 898/848/578 900/847/578 903/849/578 902/850/578
f 900/847/579 899/846/579 901/851/579 903/849/579
